<?xml version="1.0" encoding="utf-8"?>
<!-- Generator: Adobe Illustrator 15.0.0, SVG Export Plug-In . SVG Version: 6.00 Build 0)  -->
<!DOCTYPE svg PUBLIC "-//W3C//DTD SVG 1.1//EN" "http://www.w3.org/Graphics/SVG/1.1/DTD/svg11.dtd">
<svg version="1.1" id="Ebene_1" xmlns="http://www.w3.org/2000/svg" xmlns:xlink="http://www.w3.org/1999/xlink" x="0px" y="0px"
	 width="800px" height="450px" viewBox="0 -75 800 450" enable-background="new 0 -75 800 450" xml:space="preserve">
<g id="Background">
	<rect x="1.001" y="-75" fill="#75ADBC" width="799.999" height="450"/>
</g>
<g id="visual">
	<g>
		<g>
			<path fill="#6595A0" d="M142.972,285.249c0,0.655,16.152,1.199,36.079,1.199c19.921,0,36.078-0.544,36.078-1.199
				c0-0.619-16.158-1.136-36.078-1.136C159.125,284.113,142.972,284.63,142.972,285.249z"/>
			<g>
				<path fill="#EB6C1B" d="M198.049,149.911c-0.489-0.784-0.911-1.516-1.754-2.732c-0.809-1.193,0.609-2.045,1.862,0.795
					c-0.067-1.51-0.486-4.433,1.309-4.326c1.158,0.059,4.297-0.181,2.649,4.263c-0.315,1.034-0.39,1.605-0.539,2.535l-2.025,1.975
					L198.049,149.911z"/>
				<path fill="#003C58" d="M183.657,182.833c7.406-1.395,17.08-12.75,17.949-32.375l-3.508-0.534
					c-1.086,11.622-3.708,22.785-16.76,26.879C178.035,177.805,179.923,183.339,183.657,182.833z"/>
			</g>
			<path fill="#003C58" d="M180.64,176.27c9.883,6.834,16.628,33.744,9.362,49.705l-18.551,2.927
				c1.688-15.741-3.928-33.255-7.333-43.233L180.64,176.27z"/>
			<g>
				<polygon fill="#EB6C1B" points="167.193,160.666 177.519,162.785 172.522,165.61 180.634,176.279 164.124,185.668 
					155.399,162.373 164.189,157.375 				"/>
				<polygon fill="#003C58" points="167.193,160.666 167.575,154.531 154.33,162.069 160.561,175.851 160.016,164.063 				"/>
				<path fill="#28332A" d="M167.376,167.198c0.105-0.049,0.187-0.104,0.277-0.168c0.801-0.681,1.088-2.068,0.202-3.299
					l-0.381,0.292c0.733,0.993,0.497,2.124-0.133,2.642c-0.556,0.461-1.538,0.533-2.627-0.63l-0.335,0.33
					C165.537,167.635,166.666,167.645,167.376,167.198z"/>
				<path fill="#28332A" d="M175.771,174.879l-0.23-0.409c-1.916,1.096-4.992,1.439-7.178-0.021l-0.258,0.394
					C170.436,176.4,173.724,176.04,175.771,174.879z"/>
			</g>
			<polygon fill="#003C58" points="171.49,228.872 149.434,285.126 160.126,285.126 155.026,280.342 184.531,227.729 
				175.873,222.199 			"/>
			<polygon fill="#003C58" points="178.56,228.228 198.644,248.793 199.697,285.126 210.013,285.126 203.028,280.112 
				205.184,245.428 190.559,224.468 184.849,222.199 			"/>
			<polygon fill="#FFFFFF" points="180.556,177.929 175.301,181.236 180.124,185.053 187.238,213.285 191.518,217.958 
				192.591,211.285 181.644,184.064 			"/>
		</g>
		<g>
			<path fill="#EB6C1B" d="M387.944,158.011c0.237-0.608,1.197-2.633,1.515-3.261c0.842-1.666-0.481-2.497-1.508-0.043
				c0.636-2.631,1.196-4.373-0.716-5.433c-2.027-0.93-3.966-0.173-3.88,1.711c0.09,1.889,0.869,5.022,1.175,6.972
				c0.617,0.859,2.043,2.259,2.043,2.259L387.944,158.011z"/>
			<path fill="#003C58" d="M412.636,184.87c-17.218,0.231-23.236-18.107-24.691-26.859l-3.413-0.054
				c1.871,16.686,10.918,33.358,27.638,33.231C417.986,191.261,418.282,184.712,412.636,184.87z"/>
		</g>
		<g>
			<path fill="#00354E" d="M348.172,110.308c-2.582-17.805,9.774-34.333,27.583-36.897c17.831-2.582,34.327,9.772,36.911,27.595
				c2.581,17.806-9.773,34.334-27.583,36.898C367.251,140.468,350.723,128.113,348.172,110.308z M386.027,145.091
				c21.756-3.137,36.888-23.337,33.717-45.111c-3.135-21.774-23.32-36.872-45.104-33.735c-21.762,3.154-36.859,23.337-33.723,45.111
				C344.052,133.13,364.266,148.243,386.027,145.091z"/>
			<path fill="#004362" d="M427.816,98.76c-0.135-1.033-0.347-2.067-0.54-3.075l10.123-4.339c-0.123-0.747-0.541-2.378-1.125-4.099
				c-0.55-1.722-1.187-3.275-1.525-3.945l-10.722,2.513c-0.873-1.935-1.849-3.802-2.963-5.576l8.032-7.541
				c-0.379-0.665-1.35-2.041-2.473-3.456c-1.124-1.416-2.244-2.673-2.774-3.201l-9.222,6.043c-1.483-1.511-3.057-2.908-4.706-4.21
				l4.972-9.846c-0.597-0.493-1.942-1.462-3.481-2.417c-1.541-0.955-3.021-1.744-3.721-2.038l-6.593,8.802
				c-1.898-0.897-3.858-1.68-5.863-2.347l1.286-10.944c-0.71-0.25-2.324-0.691-4.079-1.063c-1.782-0.371-3.434-0.604-4.188-0.649
				l-3.177,10.532c-2.095-0.201-4.191-0.265-6.336-0.195l-2.507-10.722c-0.757,0.001-2.445,0.124-4.219,0.395
				c-0.004,0-0.007,0.001-0.011,0.001c-1.794,0.252-3.423,0.598-4.148,0.808l0.596,11.004c-2.055,0.533-4.05,1.188-5.986,1.967
				l-6.056-9.228c-0.71,0.272-2.235,0.958-3.828,1.823c-1.591,0.848-3.019,1.739-3.616,2.18l4.333,10.125
				c-1.731,1.209-3.404,2.498-4.967,3.916l-8.836-6.613c-0.564,0.491-1.753,1.665-2.96,3.015c-1.203,1.35-2.243,2.67-2.66,3.294
				l7.543,8.056c-1.222,1.712-2.338,3.494-3.316,5.359l-10.585-3.197c-0.377,0.667-1.1,2.164-1.753,3.851
				c-0.679,1.685-1.193,3.272-1.387,4.01l9.862,4.981c-0.578,2.007-1.005,4.073-1.306,6.175l-11.01,0.618
				c-0.148,0.747-0.296,2.403-0.347,4.223c-0.054,1.803-0.003,3.482,0.072,4.236l10.987,1.313c0.079,1.041,0.173,2.087,0.316,3.151
				c0.167,1.034,0.347,2.07,0.574,3.081l-10.154,4.367c0.126,0.729,0.545,2.36,1.098,4.081c0.581,1.722,1.212,3.275,1.525,3.943
				l10.75-2.519c0.877,1.93,1.875,3.792,2.987,5.563l-8.056,7.562c0.38,0.665,1.347,2.041,2.442,3.457
				c1.125,1.418,2.239,2.672,2.803,3.201l9.244-6.059c1.454,1.507,3.05,2.902,4.699,4.201l-4.985,9.872
				c0.567,0.486,1.942,1.462,3.482,2.411c1.539,0.96,3.02,1.748,3.717,2.047l6.605-8.827c1.896,0.897,3.85,1.677,5.854,2.344
				l-1.293,10.949c0.69,0.269,2.325,0.708,4.081,1.078c1.782,0.373,3.433,0.624,4.189,0.669l3.182-10.569
				c2.091,0.204,4.185,0.269,6.325,0.202l2.51,10.754c0.758-0.002,2.422-0.16,4.221-0.395c1.801-0.269,3.433-0.616,4.164-0.81
				l-0.63-11.029c2.082-0.526,4.081-1.188,6.014-1.962l6.024,9.232c0.713-0.272,2.237-0.963,3.829-1.823
				c1.626-0.848,3.023-1.735,3.647-2.176l-4.332-10.126c1.727-1.21,3.377-2.5,4.936-3.918l8.837,6.616
				c0.596-0.496,1.784-1.669,2.987-3.02c1.202-1.349,2.246-2.669,2.664-3.294l-7.566-8.048c1.255-1.713,2.342-3.497,3.352-5.363
				l10.545,3.191c0.377-0.666,1.1-2.164,1.782-3.85c0.68-1.686,1.188-3.273,1.354-4.01l-9.815-4.972
				c0.55-2.01,1.015-4.081,1.283-6.185l11.019-0.617c0.118-0.747,0.295-2.402,0.348-4.223c0.053-1.803,0.003-3.482-0.072-4.237
				l-10.967-1.309C428.087,100.883,427.992,99.832,427.816,98.76z M343.918,110.919c-2.926-20.167,11.083-38.857,31.239-41.782
				c20.153-2.908,38.872,11.087,41.765,31.24c2.925,20.171-11.088,38.874-31.238,41.782
				C365.529,145.066,346.812,131.089,343.918,110.919z"/>
			<g>
				<path fill="#005073" d="M336.029,109.954c-1.33-25.396,18.15-47.061,43.542-48.404c12.347-0.646,23.818,3.636,32.515,11.125
					c-8.831-8.28-20.906-13.097-33.926-12.418c-25.396,1.343-44.902,23.026-43.546,48.403c0.671,13.047,6.736,24.514,15.91,32.42
					C342.151,133.251,336.688,122.302,336.029,109.954z"/>
			</g>
		</g>
		<path fill="#6595A0" d="M393.032,285.245c0,0.659,15.627,1.203,34.855,1.203c19.249,0,34.878-0.544,34.878-1.203
			c0-0.623-15.629-1.171-34.878-1.171C408.658,284.074,393.032,284.622,393.032,285.245z"/>
		<g>
			<path fill="#EB6C1B" d="M271.107,159.949c0.321-0.276,1.211-1.729,1.535-2.259c0.508-0.893,0.933-1.439,0.582-1.697
				c-0.361-0.25-1.021,0.849-1.149,0.91l0.899-1.936c0.116-0.606-0.201-0.809-0.479-1.087c-0.415-0.394-1.113-0.687-1.587-0.363
				c-0.601,0.393-1.124,1.247-1.476,3.374c-0.195,1.108-0.246,1.743-0.246,1.743l-0.102,0.989L271.107,159.949z"/>
			<path fill="#003C58" d="M275.186,195.572c-9.501-3.978-15.164-17.101-5.997-36.912l2.345,0.791
				c-4.192,10.563-7.75,25.662,5.745,32.902C279.614,193.804,277.595,196.706,275.186,195.572z"/>
		</g>
		<g>
			<g>
				<polygon fill="#EB6C1B" points="410.998,181.771 412.412,168.948 408.35,166.991 419.632,155.023 434.125,160.267 
					424.243,185.937 				"/>
				<path fill="#28332A" d="M419.127,167.196c-0.328,0-0.637-0.068-0.871-0.186c-1.026-0.492-1.703-1.914-1.053-3.406l0.465,0.22
					c-0.508,1.204-0.003,2.339,0.796,2.735c0.708,0.352,1.769,0.17,2.608-1.33l0.441,0.265
					C420.786,166.757,419.899,167.196,419.127,167.196z"/>
				<path fill="#28332A" d="M416.138,177.327c-1.039,0-2.011-0.191-2.848-0.505l0.159-0.473c2.243,0.809,5.593,0.63,7.634-1.315
					l0.357,0.373C420.005,176.74,418.018,177.327,416.138,177.327z"/>
				<g>
					<path fill="#003C58" d="M435.653,158.973l-7.675,17.273l-2.088-0.751l0.119-3.813c1.153,0.053,2.23-0.636,2.65-1.779
						c0.522-1.378-0.206-2.923-1.619-3.419c-0.278-0.136-0.6-0.175-0.914-0.175l0.076-3.514c-3.736-0.363-10.479-3.854-8.771-9.17
						L435.653,158.973z"/>
				</g>
			</g>
			<polygon fill="#003C58" points="433.943,230.767 454.262,285.011 444.061,285.011 448.661,281.042 422.935,230.726 
				429.472,224.662 			"/>
			<polygon fill="#003C58" points="423.826,230.767 407.276,253.612 410.6,285.011 400.096,285.011 406.169,281.379 
				401.401,252.538 412.114,230.555 417.896,224.662 			"/>
			<path fill="#003C58" d="M424.996,183.927l-13.998-2.112c0,0-8.274,21.199-2.184,55.528l27.006-4.86
				C430.276,210.565,427.992,197.398,424.996,183.927z"/>
			<polygon fill="#FFFFFF" points="410.78,182.935 415.531,183.719 412.449,188.881 415.723,219.556 412.007,225.723 
				407.919,220.188 411.504,188.881 			"/>
			<g>
				<path fill="#EB6C1B" d="M407.902,149.927c0.883-0.934,1.566-1.475,2.563-2.044c2.634-1.472,1.776-3.543-0.648-1.227
					c1.023-2.032,2.067-3.375,0.681-5.084c-1.542-1.616-3.611-1.656-4.243,0.141c-0.597,1.779-1.043,4.971-1.513,6.893
					c0.245,1.035,1.058,2.864,1.058,2.864L407.902,149.927z"/>
				<path fill="#003C58" d="M420.729,184.088c-16.054-6.237-14.76-25.488-12.826-34.161l-3.16-1.322
					c-4.496,16.16-2.365,35.024,13.198,41.154C423.311,192.016,426.028,186.032,420.729,184.088z"/>
			</g>
		</g>
		<g>
			<g>
				<path fill="#FFFFFF" d="M282.328,109.158c0-0.795,0.657-1.452,1.452-1.452s1.447,0.657,1.447,1.452
					c0,0.793-0.652,1.433-1.447,1.433S282.328,109.952,282.328,109.158z M283.795,118.29h0.222v5.536h0.728l0.585-5.536h1.044
					l-1.078-5.575l0.292-0.001l0.903,4.442h0.47l-0.274-4.837c-0.104-1.047-0.827-1.47-1.728-1.47h-1.165h-1.165
					c-0.901,0-1.629,0.423-1.754,1.47l-0.252,4.837h0.475l0.903-4.442l0.295,0.001l-1.082,5.575h1.044l0.56,5.536h0.752v-5.536
					H283.795z"/>
				<path fill="#FFFFFF" d="M274.468,109.158c0-0.795,0.627-1.452,1.422-1.452c0.821,0,1.447,0.657,1.447,1.452
					c0,0.793-0.627,1.433-1.447,1.433C275.095,110.591,274.468,109.952,274.468,109.158z M275.933,116.975h0.174l0.54,6.851h1.011
					l0.001-11.111l0.338-0.001l0.636,4.442h0.573v-4.886c0-0.787-0.649-1.42-1.437-1.42h-1.835h-1.861
					c-0.786,0-1.437,0.633-1.437,1.42v4.886h0.6l0.609-4.442l0.337,0.001v11.111h1.012l0.541-6.851H275.933z"/>
				<g>
					<path fill="#FFFFFF" d="M278.096,129.04c0-0.798,0.661-1.459,1.459-1.459c0.798,0,1.455,0.661,1.455,1.459
						c0,0.799-0.657,1.455-1.455,1.455C278.756,130.495,278.096,129.839,278.096,129.04z"/>
					<g>
						<path fill="#FFFFFF" d="M277.125,135.251l0.374-2.62l0.314,0.001v2.619h3.52v-2.619l0.314-0.001l0.372,2.62h0.869v-3.084
							c0-0.791-0.653-1.428-1.443-1.428h-1.872h-1.871c-0.791,0-1.443,0.637-1.443,1.428v3.084H277.125z"/>
					</g>
				</g>
				<g>
					<path fill="#FFFFFF" d="M284.064,131.026c0.666,0,1.235-0.556,1.235-1.229c0-0.691-0.569-1.247-1.235-1.247
						c-0.686,0-1.255,0.555-1.255,1.247C282.81,130.47,283.378,131.026,284.064,131.026z"/>
					<g>
						<path fill="#FFFFFF" d="M283.255,132.139c0,0.001,0,0.001,0,0.001v2.504h2.32l0.001-1.789h0.264l0.265,1.789h0.785v-2.175
							c0-0.685-0.54-1.236-1.221-1.236h-1.59h-1.086C283.14,131.508,283.255,131.805,283.255,132.139z"/>
					</g>
				</g>
				<g>
					<path fill="#FFFFFF" d="M276.339,129.797c0-0.691-0.569-1.247-1.255-1.247c-0.666,0-1.235,0.555-1.235,1.247
						c0,0.673,0.569,1.229,1.235,1.229C275.771,131.026,276.339,130.47,276.339,129.797z"/>
					<g>
						<path fill="#FFFFFF" d="M276.155,131.234h-1.087h-1.591c-0.679,0-1.22,0.551-1.22,1.236v2.175h0.785l0.265-1.789h0.265v1.789
							h2.323v-2.504v-0.001C275.898,131.805,276.01,131.508,276.155,131.234z"/>
					</g>
				</g>
				<polygon fill="#FFFFFF" points="284.195,124.268 284.022,124.268 284.022,125.463 279.53,125.463 275.034,125.463 
					275.034,124.268 274.866,124.268 274.866,125.65 279.441,125.65 279.441,127.13 279.615,127.13 279.615,125.65 284.195,125.65 
									"/>
			</g>
			<g>
				<path fill="#FFFFFF" d="M290.693,114.795c0-0.402,0.328-0.735,0.732-0.735c0.405,0,0.735,0.333,0.735,0.735
					s-0.329,0.736-0.735,0.736C291.022,115.531,290.693,115.198,290.693,114.795z M291.438,118.776h0.086l0.286,3.472h0.5v-5.632
					h0.16l0.325,2.242h0.301v-2.486c0-0.398-0.331-0.711-0.731-0.711h-0.926h-0.958c-0.402,0-0.729,0.313-0.729,0.711v2.486h0.301
					l0.324-2.242h0.16l0,5.632h0.527l0.26-3.472H291.438z"/>
				<path fill="#FFFFFF" d="M294.572,114.795c0-0.402,0.329-0.735,0.735-0.735c0.403,0,0.732,0.333,0.732,0.735
					s-0.328,0.736-0.732,0.736C294.9,115.531,294.572,115.198,294.572,114.795z M295.318,118.776h0.085l0.289,3.472h0.497v-5.632
					h0.185l0.298,2.242h0.302v-2.486c0-0.398-0.333-0.711-0.73-0.711h-0.927h-0.958c-0.398,0-0.729,0.313-0.729,0.711v2.486h0.301
					l0.326-2.242h0.165v5.632h0.521l0.284-3.472H295.318z"/>
				<path fill="#FFFFFF" d="M298.45,114.795c0-0.402,0.333-0.735,0.736-0.735c0.403,0,0.734,0.333,0.734,0.735
					s-0.331,0.736-0.734,0.736C298.783,115.531,298.45,115.198,298.45,114.795z M299.195,118.776h0.085l0.29,3.472h0.495
					l0.001-5.632h0.185l0.297,2.242h0.302v-2.486c0-0.398-0.328-0.711-0.727-0.711h-0.929h-0.958c-0.399,0-0.705,0.313-0.705,0.711
					v2.486h0.279l0.321-2.242h0.185v5.632h0.502l0.285-3.472H299.195z"/>
				<path fill="#FFFFFF" d="M302.329,114.795c0-0.402,0.332-0.735,0.735-0.735c0.402,0,0.736,0.333,0.736,0.735
					s-0.333,0.736-0.736,0.736C302.662,115.531,302.329,115.198,302.329,114.795z M303.072,118.776h0.087l0.29,3.472h0.495
					l0.001-5.632h0.184l0.298,2.242h0.302v-2.486c0-0.398-0.328-0.711-0.727-0.711h-0.932h-0.957c-0.398,0-0.704,0.313-0.704,0.711
					v2.486h0.279l0.32-2.242h0.185v5.632h0.501l0.286-3.472H303.072z"/>
				<path fill="#FFFFFF" d="M290.693,123.559c0-0.421,0.328-0.735,0.732-0.735c0.405,0,0.735,0.315,0.735,0.735
					c0,0.403-0.329,0.719-0.735,0.719C291.022,124.277,290.693,123.961,290.693,123.559z M291.438,127.521h0.086l0.286,3.473h0.5
					v-5.632h0.16l0.325,2.26h0.301v-2.486c0-0.399-0.331-0.729-0.731-0.729h-0.926h-0.958c-0.402,0-0.729,0.33-0.729,0.729v2.486
					h0.301l0.324-2.26h0.16l0,5.632h0.527l0.26-3.473H291.438z"/>
				<path fill="#FFFFFF" d="M294.572,123.559c0-0.421,0.329-0.735,0.735-0.735c0.403,0,0.732,0.315,0.732,0.735
					c0,0.403-0.328,0.719-0.732,0.719C294.9,124.277,294.572,123.961,294.572,123.559z M295.318,127.521h0.085l0.289,3.473h0.497
					v-5.632h0.185l0.298,2.26h0.302v-2.486c0-0.399-0.333-0.729-0.73-0.729h-0.927h-0.958c-0.398,0-0.729,0.33-0.729,0.729v2.486
					h0.301l0.326-2.26h0.165v5.632h0.521l0.284-3.473H295.318z"/>
				<path fill="#FFFFFF" d="M298.45,123.559c0-0.421,0.333-0.735,0.736-0.735c0.403,0,0.734,0.315,0.734,0.735
					c0,0.403-0.331,0.719-0.734,0.719C298.783,124.277,298.45,123.961,298.45,123.559z M299.195,127.521h0.085l0.29,3.473h0.495
					l0.001-5.632h0.185l0.297,2.26h0.302v-2.486c0-0.399-0.328-0.729-0.727-0.729h-0.929h-0.958c-0.399,0-0.705,0.33-0.705,0.729
					v2.486h0.279l0.321-2.26h0.185v5.632h0.502l0.285-3.473H299.195z"/>
				<path fill="#FFFFFF" d="M302.329,123.559c0-0.421,0.332-0.735,0.735-0.735c0.402,0,0.736,0.315,0.736,0.735
					c0,0.403-0.333,0.719-0.736,0.719C302.662,124.277,302.329,123.961,302.329,123.559z M303.072,127.521h0.087l0.29,3.473h0.495
					l0.001-5.632h0.184l0.298,2.26h0.302v-2.486c0-0.399-0.328-0.729-0.727-0.729h-0.932h-0.957c-0.398,0-0.704,0.33-0.704,0.729
					v2.486h0.279l0.32-2.26h0.185v5.632h0.501l0.286-3.473H303.072z"/>
			</g>
		</g>
		<g>
			<rect x="357.546" y="111.651" fill="#FFFFFF" width="4.917" height="11.213"/>
			<rect x="365.256" y="105.192" fill="#FFFFFF" width="4.916" height="17.671"/>
			<rect x="372.968" y="108.984" fill="#FFFFFF" width="4.917" height="13.88"/>
			<rect x="380.678" y="100.148" fill="#FFFFFF" width="4.916" height="22.716"/>
			<rect x="388.39" y="106.317" fill="#FFFFFF" width="4.915" height="16.546"/>
			<rect x="396.099" y="95.25" fill="#FFFFFF" width="4.917" height="27.614"/>
			<polygon fill="#FFFFFF" points="356.409,108.181 356.173,107.827 367.625,99.479 367.763,99.544 375.299,103.942 382.293,95.542 
				391.688,99.33 399.984,87.697 400.341,87.943 391.833,99.862 382.437,96.065 375.393,104.501 367.649,99.982 			"/>
			<path fill="#FFFFFF" d="M366.381,99.876c0-0.774,0.636-1.415,1.411-1.415c0.774,0,1.389,0.64,1.389,1.415
				c0,0.774-0.615,1.397-1.389,1.397C367.017,101.274,366.381,100.65,366.381,99.876z"/>
			<path fill="#FFFFFF" d="M373.675,104.085c0-0.774,0.635-1.415,1.41-1.415c0.774,0,1.383,0.641,1.383,1.415
				c0,0.773-0.609,1.397-1.383,1.397C374.31,105.483,373.675,104.859,373.675,104.085z"/>
			<path fill="#FFFFFF" d="M380.811,95.812c0-0.774,0.635-1.414,1.409-1.414c0.774,0,1.416,0.64,1.416,1.414
				s-0.642,1.397-1.416,1.397C381.446,97.209,380.811,96.586,380.811,95.812z"/>
			<path fill="#FFFFFF" d="M390.221,99.458c0-0.773,0.61-1.415,1.383-1.415c0.774,0,1.411,0.642,1.411,1.415
				c0,0.774-0.636,1.397-1.411,1.397C390.831,100.855,390.221,100.233,390.221,99.458z"/>
			<path fill="#FFFFFF" d="M398.766,87.812c0-0.774,0.636-1.397,1.41-1.397c0.776,0,1.385,0.623,1.385,1.397
				c0,0.774-0.609,1.414-1.385,1.414C399.402,89.226,398.766,88.586,398.766,87.812z"/>
		</g>
		<g>
			<path fill="#FFFFFF" d="M216.827,111.035c0-0.008,0-0.016,0-0.041c-0.046-9.099-7.469-16.474-16.567-16.445
				c-9.099,0.03-16.491,7.469-16.457,16.567c0,0.009,0,0.016,0,0.024c0,0.004,0,0.009,0,0.015c0,0.019,0.013,0.038,0.013,0.073
				c0.078,8.59,6.772,15.632,15.199,16.281c0.484,0.132,0.962,0.19,1.466,0.19c0.528-0.002,1.026-0.073,1.53-0.217
				c8.299-0.86,14.778-7.875,14.814-16.377c0-0.019,0.002-0.037,0.002-0.056C216.827,111.043,216.827,111.039,216.827,111.035z
				 M201.658,125.721c-0.125,0.01-0.231,0.019-0.354,0.026l-0.017-5.271c1.85-0.074,3.6-0.3,5.212-0.669
				C205.353,122.872,203.621,125.064,201.658,125.721z M194.41,119.911c1.601,0.319,3.311,0.517,5.097,0.574l0.018,5.275
				c-0.055-0.002-0.125-0.008-0.179-0.013C197.365,125.146,195.605,122.953,194.41,119.911z M209.72,110.134
				c-0.076-1.801-0.299-3.522-0.657-5.125c3.137,1.221,5.325,3.042,5.854,5.109L209.72,110.134z M207.933,110.141l-6.679,0.021
				l-0.021-6.64c2.075,0.058,4.042,0.362,5.81,0.836C207.525,106.112,207.843,108.071,207.933,110.141z M201.227,101.721
				l-0.017-5.149c2.057,0.457,3.916,2.629,5.147,5.769C204.762,101.992,203.034,101.783,201.227,101.721z M199.413,96.604
				l0.019,5.118c-1.763,0.067-3.429,0.271-4.989,0.592C195.632,99.278,197.411,97.135,199.413,96.604z M199.453,103.524l0.021,6.643
				l-6.561,0.021c0.065-2.091,0.375-4.07,0.854-5.847C195.503,103.885,197.426,103.585,199.453,103.524z M191.111,110.194
				l-5.407,0.018c0.524-2.118,2.809-3.987,6.05-5.227C191.394,106.614,191.18,108.363,191.111,110.194z M191.11,111.992
				c0.065,1.851,0.282,3.619,0.645,5.267c-3.268-1.218-5.563-3.114-6.066-5.25L191.11,111.992z M192.907,111.986l6.574-0.039
				l0.021,6.736c-2.046-0.05-3.986-0.323-5.739-0.794C193.283,116.095,192.968,114.078,192.907,111.986z M201.282,118.675
				l-0.022-6.733l6.693-0.021c-0.064,2.089-0.341,4.069-0.819,5.87C205.357,118.281,203.375,118.603,201.282,118.675z
				 M209.734,111.915l5.208-0.017c-0.478,2.093-2.657,3.966-5.785,5.207C209.5,115.495,209.698,113.752,209.734,111.915z
				 M214.061,105.82c-1.412-1.223-3.324-2.22-5.576-2.935c-0.729-2.273-1.782-4.202-3.027-5.624
				C209.402,98.744,212.567,101.869,214.061,105.82z M195.401,97.188c-1.283,1.407-2.343,3.357-3.078,5.679
				c-2.363,0.733-4.342,1.785-5.794,3.042C188.035,101.853,191.297,98.634,195.401,97.188z M186.612,116.441
				c1.459,1.217,3.407,2.216,5.706,2.927c0.687,2.191,1.659,4.068,2.829,5.472C191.253,123.386,188.138,120.312,186.612,116.441z
				 M205.885,124.675c1.133-1.412,2.07-3.279,2.728-5.448c2.181-0.72,4.047-1.707,5.434-2.892
				C212.6,120.121,209.62,123.139,205.885,124.675z"/>
			<path fill="#FFFFFF" d="M223.701,113.103l-2.328-4.521l-2.299,4.537l1.694-0.006c-1.041,10.287-9.721,18.351-20.277,18.385
				c-4.686,0.016-9.28-1.608-12.925-4.546l-0.754,0.936c3.855,3.114,8.71,4.823,13.684,4.807
				c11.211-0.036,20.433-8.642,21.475-19.583L223.701,113.103z"/>
			<path fill="#FFFFFF" d="M200.336,89.364c-11.114,0.053-20.279,8.505-21.445,19.32l-1.759,0.021l2.33,4.521l2.3-4.553
				l-1.666,0.005c1.165-10.139,9.784-18.068,20.243-18.102c4.741-0.033,9.36,1.612,13.018,4.591l0.759-0.914
				C210.237,91.081,205.346,89.349,200.336,89.364z"/>
		</g>
		<g>
			<path fill="#00354E" d="M265.653,126.584c-2.559-12.194,5.282-24.151,17.463-26.695c12.212-2.546,24.167,5.267,26.699,17.462
				c2.559,12.212-5.255,24.167-17.467,26.712C280.167,146.609,268.191,138.796,265.653,126.584z M293.104,147.721
				c14.213-2.979,23.333-16.9,20.36-31.097c-2.98-14.214-16.901-23.322-31.115-20.36c-14.211,2.962-23.304,16.9-20.356,31.097
				C264.968,141.575,278.89,150.687,293.104,147.721z"/>
			<path fill="#004362" d="M319.588,120.722c0.074,1.871-0.011,3.705-0.263,5.507l6.775,2.604c-0.06,0.753-0.892,3.841-1.291,5.05
				c-0.4,1.208-1.559,4.199-1.971,4.822l-6.889-1.901c-0.864,1.662-1.893,3.229-3.037,4.712l4.499,5.533
				c-0.407,0.644-2.679,2.888-3.62,3.751c-0.965,0.843-3.444,2.853-4.126,3.181l-4.951-5.015c-1.577,1.01-3.25,1.86-5.033,2.58
				l1.108,6.962c-0.678,0.347-3.771,1.162-5.013,1.421c-1.242,0.251-4.4,0.748-5.154,0.699l-1.777-6.769
				c-1.917,0.063-3.815-0.024-5.673-0.302l-2.499,6.546c-0.753-0.035-3.841-0.866-5.049-1.276c-1.213-0.398-4.2-1.558-4.841-1.97
				l1.869-6.77c-1.654-0.881-3.237-1.931-4.721-3.101l-5.48,4.444c-0.639-0.415-2.901-2.684-3.746-3.638
				c-0.848-0.953-2.868-3.449-3.186-4.114l5.04-4.976c-0.983-1.575-1.815-3.26-2.515-5.021l-7.046,1.122
				c-0.346-0.679-1.162-3.771-1.435-5.013c-0.242-1.26-0.743-4.415-0.703-5.168l6.966-1.809c-0.046-1.875,0.079-3.732,0.332-5.536
				l-6.756-2.591c0.035-0.752,0.867-3.84,1.265-5.066c0.397-1.208,1.556-4.183,1.968-4.823l7.063,1.944
				c0.888-1.597,1.876-3.125,3.01-4.55l-4.648-5.738c0.412-0.626,2.679-2.889,3.646-3.733c0.941-0.862,3.451-2.858,4.106-3.198
				l5.218,5.271c1.532-0.926,3.15-1.751,4.844-2.422l-0.024-0.02l-1.163-7.339c0.676-0.345,3.768-1.161,5.014-1.435
				c1.269-0.255,4.427-0.749,5.181-0.691l1.875,7.187l-0.018,0.033c1.822-0.054,3.65,0.032,5.442,0.297l-0.018-0.064l2.667-6.939
				c0.727,0.052,3.815,0.882,5.049,1.281c1.211,0.397,4.199,1.556,4.809,1.969l-1.97,7.163l-0.019,0.011
				c1.597,0.865,3.123,1.854,4.569,2.971l0.004-0.028l5.775-4.691c0.614,0.424,2.871,2.68,3.72,3.633
				c0.869,0.954,2.871,3.449,3.208,4.132l-5.26,5.162c0.974,1.527,1.802,3.161,2.504,4.868l7.255-1.154
				c0.345,0.663,1.163,3.754,1.431,5.013c0.272,1.242,0.75,4.397,0.709,5.15L319.588,120.722z M292.809,146.249
				c13.426-2.795,22.028-15.964,19.229-29.379c-2.795-13.431-15.947-22.029-29.378-19.233
				c-13.431,2.812-22.028,15.965-19.234,29.396C266.226,140.447,279.404,149.061,292.809,146.249z"/>
			<g>
				<path fill="#005073" d="M258.389,122.826c0-16.722,13.547-30.268,30.28-30.268c8.124,0,15.495,3.198,20.931,8.411
					c-5.503-5.734-13.273-9.325-21.857-9.325c-16.706,0-30.253,13.546-30.253,30.268c0,8.597,3.577,16.342,9.326,21.84
					C261.592,138.318,258.389,130.95,258.389,122.826z"/>
			</g>
		</g>
		<g>
			<path fill="#00354E" d="M171.042,110.848c0-16.175,13.109-29.284,29.283-29.284s29.284,13.109,29.284,29.284
				c0,16.157-13.11,29.266-29.284,29.266S171.042,127.005,171.042,110.848z M200.26,146.638c19.759,0,35.782-16.023,35.782-35.782
				c0-19.776-16.023-35.8-35.782-35.8c-19.776,0-35.798,16.023-35.798,35.8C164.46,130.615,180.482,146.638,200.26,146.638z"/>
			<path fill="#004362" d="M243.375,110.789c0-0.927-0.037-1.864-0.091-2.796l9.571-2.562c-0.02-0.687-0.203-2.187-0.465-3.784
				c-0.287-1.597-0.644-3.066-0.866-3.707l-9.841,0.852c-0.536-1.825-1.195-3.62-1.954-5.346l8.118-5.672
				c-0.262-0.626-0.927-1.973-1.749-3.395c-0.81-1.403-1.638-2.647-2.053-3.187l-8.98,4.187c-1.124-1.531-2.34-2.988-3.653-4.354
				l5.691-8.119c-0.466-0.513-1.544-1.543-2.8-2.583c-1.237-1.055-2.443-1.954-3.021-2.298l-7.01,6.988
				c-1.567-1.061-3.201-2.011-4.909-2.847l2.554-9.553c-0.598-0.326-1.974-0.926-3.504-1.485c-1.531-0.558-2.968-0.979-3.639-1.125
				l-4.19,8.978c-1.815-0.459-3.687-0.779-5.592-1l-0.858-9.867c-0.681-0.085-2.17-0.191-3.807-0.191c-0.002,0-0.006,0-0.01,0
				c-1.615,0.001-3.116,0.106-3.797,0.191l-0.857,9.865c-1.906,0.205-3.776,0.541-5.59,0.997l-4.196-8.987
				c-0.656,0.146-2.109,0.566-3.639,1.125c-1.529,0.558-2.906,1.159-3.503,1.467l2.556,9.575c-1.689,0.834-3.34,1.783-4.906,2.842
				l-7.006-7.021c-0.577,0.363-1.8,1.261-3.039,2.298c-1.256,1.056-2.334,2.088-2.799,2.601l5.698,8.129
				c-1.311,1.362-2.527,2.799-3.651,4.326l-9.002-4.179c-0.416,0.522-1.243,1.783-2.053,3.187c-0.826,1.42-1.488,2.769-1.736,3.394
				l8.12,5.682c-0.76,1.722-1.417,3.496-1.938,5.333l-9.899-0.871c-0.209,0.657-0.565,2.109-0.841,3.725
				c-0.275,1.597-0.443,3.096-0.465,3.767l9.578,2.584c-0.057,0.944-0.096,1.878-0.096,2.837c0,0.947,0.038,1.886,0.093,2.818
				l-9.583,2.569c0.021,0.687,0.19,2.187,0.464,3.784c0.276,1.596,0.632,3.066,0.841,3.707l9.898-0.854
				c0.517,1.819,1.175,3.594,1.933,5.315l-8.139,5.705c0.26,0.626,0.919,1.973,1.746,3.376c0.811,1.421,1.637,2.665,2.053,3.205
				l9.005-4.196c1.121,1.527,2.333,2.982,3.643,4.345l-5.705,8.139c0.464,0.511,1.542,1.543,2.798,2.582
				c1.239,1.055,2.445,1.938,3.022,2.299l7.025-7.004c1.563,1.042,3.194,1.99,4.899,2.843l-2.56,9.573
				c0.598,0.326,1.974,0.93,3.504,1.484c1.531,0.541,2.972,0.997,3.639,1.126l4.197-8.988c1.812,0.452,3.681,0.778,5.584,0.979
				l0.859,9.899c0.682,0.086,2.17,0.17,3.807,0.17c1.619,0,3.125-0.086,3.807-0.17l0.858-9.892c1.906-0.197,3.775-0.523,5.588-0.973
				l4.197,8.989c0.656-0.131,2.109-0.587,3.639-1.126c1.53-0.554,2.906-1.158,3.504-1.485l-2.557-9.556
				c1.691-0.851,3.342-1.781,4.909-2.84l7.003,6.999c0.577-0.349,1.8-1.243,3.04-2.288c1.255-1.049,2.333-2.081,2.798-2.593
				l-5.693-8.12c1.314-1.363,2.532-2.818,3.656-4.345l8.99,4.189c0.416-0.539,1.243-1.782,2.053-3.187
				c0.824-1.421,1.487-2.769,1.743-3.394l-8.113-5.672c0.762-1.724,1.425-3.518,1.944-5.34l9.862,0.852
				c0.227-0.64,0.58-2.109,0.848-3.707c0.285-1.597,0.467-3.096,0.488-3.766l-9.569-2.579
				C243.338,112.71,243.375,111.754,243.375,110.789z M167.178,110.848c0-18.308,14.84-33.148,33.148-33.148
				c18.307,0,33.148,14.841,33.148,33.148c0,18.307-14.841,33.13-33.148,33.13C182.019,143.978,167.178,129.155,167.178,110.848z"/>
			<g>
				<path fill="#005073" d="M160.775,112.304c0-22.651,18.365-41.016,41.033-41.016c10.945,0,20.869,4.286,28.222,11.263
					c-7.481-7.883-18.031-12.795-29.755-12.795c-22.668,0-41.034,18.365-41.034,41.016c0,11.724,4.931,22.292,12.796,29.772
					C165.06,133.172,160.775,123.25,160.775,112.304z"/>
			</g>
		</g>
		<g>
			<g>
				<path fill="#003149" d="M180.64,176.27l-0.122,0.059c-3.109,4.464-7.231,8.124-12.693,9.862
					c-3.457,0.884-2.55,7.765,3.606,6.269c4.41-1.288,9.192-5.614,13.119-12.252C183.33,178.572,182.014,177.203,180.64,176.27z"/>
			</g>
			<g>
				<path fill="#9CB6C2" d="M180.389,186.034c0.458-0.519,0.917-1.102,1.376-1.676l-0.121-0.292l-1.088-6.138l-2.646,1.685
					c-0.667,0.688-1.366,1.364-2.104,2.016l4.317,3.426L180.389,186.034z"/>
			</g>
			<g>
				<path fill="#EB6C1B" d="M188.75,150.753c-0.159-0.853-0.765-2.104-1.201-2.731c-0.865-1.189,0.231-1.825,1.932,0.311
					c0.173-1.033,0.204-1.917,0.223-2.784c0.033-1.09,0.87-2.778,2.51-1.34c0.752,0.64,1.792,1.856,1.28,3.325
					c-0.591,1.644-0.831,2.457-1.319,3.864l-1.795,0.126L188.75,150.753z"/>
				<path fill="#003C58" d="M171.03,190.982c8.958-2.647,19.44-17.627,21.239-39.563l-3.545-0.696
					c-1.334,9.796-6.291,29.274-21.317,33.99C163.968,185.6,164.875,192.479,171.03,190.982z"/>
			</g>
		</g>
		<g>
			<path fill="#6595A0" d="M322.433,285.249c0,0.655-16.671,1.199-37.24,1.199c-20.595,0-30.989-0.544-30.989-1.199
				c0-0.619,10.394-1.136,30.989-1.136C305.761,284.113,322.433,284.63,322.433,285.249z"/>
			<polygon fill="#EB6C1B" points="294.354,235.856 300.443,259.508 318.397,284.931 310.542,284.931 313.824,281.852 
				295.849,260.454 285.791,239.132 291.84,236.875 			"/>
			<polygon fill="#EB6C1B" points="285.062,241.721 274.876,259.127 266.088,284.931 258.777,284.931 264.381,281.842 
				269.855,257.729 277.421,238.254 282.563,235.453 			"/>
			<path fill="#EB6C1B" d="M264.682,176.976c2.211-0.839,2.824-6.112,2.824-6.112c1.337-5.994,5.824-6.783,14.112-5.979
				c0,0,14.756,1.819,2.541,16.295c-4.249,5.032-3.173,9.679-3.173,9.679l-3.875,1.118l-1.435-1.163
				c0.142-1.618,2.583-2.678-2.348-6.338c-2.756-2.025-5.091-4.559-5.953-7.69L264.682,176.976z"/>
			<path fill="#003C58" d="M275.856,192.008c-5.524,7.826-3.448,21.154-0.367,36.792c0.762,3.872,0.456,9.887-1.226,16.896h22.667
				c-1.971-11.073-3.326-14.601-5.797-21.054c-6.426-16.654-5.364-17.606-9.308-33.736L275.856,192.008z"/>
			<polygon fill="#28332A" points="272.268,175.044 272.132,174.633 276.903,172.936 277.042,173.35 			"/>
			<g>
				<polygon fill="#28332A" points="310.542,284.931 313.818,281.855 316.298,281.855 318.397,284.931 				"/>
			</g>
			<g>
				<polygon fill="#28332A" points="258.776,284.931 264.355,281.855 267.142,281.855 266.088,284.931 				"/>
			</g>
			<g>
				<path fill="#003C58" d="M278.464,160.623c16.704-2.447,19.487,15.251,9.562,23.7c-4.142,3.512-0.372,6.508,2.124,6.595
					c-7.274,2.36-10.791-5.034-8.129-13.203c1.001-0.204,1.792-1.012,1.887-2.073c0.143-1.269-0.809-2.407-2.076-2.521
					c-0.205-0.016-0.377-0.006-0.572,0.018c-0.381-1.2-0.917-2.246-1.727-3.003c-4.307,1.887-11.165,1.257-13.188-3.518
					C268.719,167.82,268.461,162.188,278.464,160.623z"/>
			</g>
			<path fill="#28332A" d="M274.431,182.603c-0.186,0-0.338-0.012-0.516-0.037l0.098-0.429c1.352,0.257,3.13-0.78,3.332-1.679
				l0.43,0.092C277.531,181.646,275.847,182.603,274.431,182.603z"/>
			<polygon fill="#FFFFFF" points="275.015,193.282 274.972,191.2 275.968,189.688 276.885,191.499 276.937,191.499 
				281.474,189.394 282.004,191.192 279.231,193.692 273.896,208.087 			"/>
			<g>
				<path fill="#003C58" d="M283.99,195.938c11.074-5.49,17.998-13.715,16.91-33.697l-2.038,0.102
					c0.293,16.751-6.872,25.808-17.608,30.137C278.492,193.557,280.82,197.73,283.99,195.938z"/>
				<path fill="#EB6C1B" d="M298.877,162.375c-0.289-0.318-0.569-1.629-1.111-2.467c-0.525-0.866-0.961-1.475-0.56-1.696
					c0.38-0.199,0.91,0.955,1.03,1.041l-0.681-1.909c-0.086-0.617,0.253-0.902,0.581-1.15c0.454-0.353,1.175-0.566,1.616-0.197
					c0.563,0.453,0.997,1.367,1.113,3.508c0.063,1.121,0.052,1.767,0.052,1.767l0.011,0.997L298.877,162.375z"/>
			</g>
		</g>
		<g>
			<path fill="#00354E" d="M444.361,122.458c0-10.85,8.806-19.654,19.654-19.654c10.85,0,19.655,8.806,19.655,19.654
				c0,10.85-8.806,19.655-19.655,19.655C453.167,142.113,444.361,133.308,444.361,122.458z"/>
			<path fill="#004362" d="M487.877,130.236l7.031,5.393l-3.937,6.841l-8.232-3.429c-1.663,1.809-3.53,3.385-5.646,4.669
				l1.938,8.701l-7.406,2.697l-4.154-7.975c-1.136,0.16-2.291,0.239-3.468,0.239c-1.277,0-2.532-0.088-3.795-0.276l-4.112,7.964
				l-7.441-2.698l1.966-8.837c-2.04-1.292-3.897-2.862-5.487-4.66l-8.324,3.467l-3.969-6.841l7.213-5.506
				c-0.733-2.248-1.151-4.621-1.214-7.093l-8.651-2.71l1.387-7.764l9.063,0.402c0.896-2.267,2.113-4.368,3.606-6.238l-4.863-7.604
				l6.056-5.066l6.621,6.076c2.133-1.143,4.431-1.984,6.846-2.476l1.157-8.86h7.872l1.158,8.84c2.468,0.509,4.782,1.373,6.896,2.517
				l6.54-6.008l6.055,5.083l-4.81,7.502c1.519,1.913,2.788,4.065,3.686,6.379l8.85-0.395l1.35,7.764l-8.486,2.67
				C489.094,125.53,488.647,127.95,487.877,130.236z M464.002,138.61c9.094,0,16.451-7.375,16.451-16.452
				s-7.358-16.435-16.451-16.435c-9.061,0-16.419,7.357-16.419,16.435S454.941,138.61,464.002,138.61z"/>
			<path fill="#00567C" d="M449.577,122.163c0-7.97,6.438-14.445,14.426-14.445s14.461,6.474,14.461,14.445
				c0,7.988-6.474,14.444-14.461,14.444S449.577,130.15,449.577,122.163z"/>
			<g>
				<path fill="#3A739D" d="M451.922,123.227c0-7.327,5.927-13.27,13.253-13.27c3.323,0,6.347,1.213,8.669,3.226
					c-2.456-2.829-6.038-4.618-10.043-4.618c-7.327,0-13.288,5.943-13.288,13.27c0,4.004,1.807,7.604,4.618,10.044
					C453.136,129.554,451.922,126.531,451.922,123.227z"/>
			</g>
		</g>
		<g>
			<g>
				<path fill="#00354E" d="M92.3,104.483c-2.466-11.784,5.089-23.338,16.89-25.804c11.786-2.467,23.339,5.088,25.788,16.874
					c2.467,11.801-5.088,23.338-16.874,25.805C106.32,123.824,94.768,116.268,92.3,104.483z M118.836,124.885
					c13.725-2.854,22.518-16.312,19.657-30.038c-2.863-13.741-16.321-22.537-30.046-19.665
					c-13.725,2.87-22.536,16.312-19.665,30.054C91.653,118.962,105.094,127.754,118.836,124.885z"/>
				<path fill="#004362" d="M144.407,98.802c0.084,1.813-0.01,3.592-0.242,5.337l6.536,2.508c-0.033,0.729-0.854,3.706-1.24,4.877
					c-0.386,1.17-1.493,4.053-1.892,4.658l-6.665-1.824c-0.835,1.592-1.816,3.112-2.926,4.533l4.331,5.362
					c-0.395,0.608-2.58,2.799-3.503,3.617c-0.924,0.819-3.326,2.753-3.97,3.083l-4.783-4.843c-1.528,0.962-3.164,1.787-4.86,2.484
					l1.057,6.73c-0.641,0.319-3.638,1.108-4.841,1.373c-1.204,0.249-4.261,0.71-4.992,0.671l-1.708-6.549
					c-1.841,0.079-3.682-0.023-5.47-0.275l-2.434,6.328c-0.725-0.053-3.706-0.857-4.876-1.243c-1.17-0.386-4.053-1.51-4.657-1.909
					l1.794-6.54c-1.602-0.854-3.134-1.854-4.575-2.988l-5.289,4.286c-0.607-0.395-2.795-2.581-3.618-3.503
					c-0.818-0.924-2.753-3.327-3.083-3.988l4.878-4.806c-0.934-1.526-1.756-3.142-2.418-4.85l-6.812,1.088
					c-0.336-0.658-1.126-3.638-1.389-4.841c-0.249-1.221-0.711-4.261-0.672-4.991l6.736-1.753c-0.045-1.818,0.05-3.601,0.321-5.348
					l-6.543-2.511c0.034-0.73,0.839-3.705,1.225-4.877c0.385-1.17,1.508-4.053,1.908-4.664l6.818,1.874
					c0.854-1.547,1.824-3.012,2.906-4.41l-4.482-5.528c0.395-0.608,2.581-2.799,3.504-3.618c0.924-0.818,3.339-2.752,3.988-3.083
					l5.026,5.09c1.485-0.896,3.053-1.679,4.691-2.346l-0.024-0.019l-1.125-7.097c0.658-0.318,3.637-1.108,4.844-1.373
					c1.217-0.248,4.275-0.728,4.987-0.67l1.822,6.948l-0.017,0.032c1.775-0.052,3.533,0.032,5.257,0.271l-0.017-0.044l2.568-6.709
					c0.729,0.051,3.705,0.856,4.876,1.242c1.188,0.386,4.069,1.509,4.675,1.908l-1.909,6.908l-0.017,0.028
					c1.548,0.819,3.009,1.779,4.41,2.844l0.003-0.026l5.566-4.512c0.625,0.395,2.798,2.58,3.618,3.503
					c0.819,0.924,2.768,3.326,3.083,3.987l-5.067,5.002c0.93,1.463,1.73,3.029,2.396,4.684l7.042-1.117
					c0.335,0.642,1.125,3.637,1.372,4.841c0.248,1.204,0.728,4.262,0.67,4.991L144.407,98.802z M118.547,123.474
					c12.966-2.708,21.298-15.423,18.572-28.389c-2.709-12.966-15.407-21.281-28.388-18.572
					c-12.966,2.709-21.282,15.422-18.573,28.388C92.867,117.868,105.581,126.183,118.547,123.474z"/>
				<g>
					<path fill="#005073" d="M85.294,100.84c0-16.155,13.094-29.25,29.231-29.25c7.857,0,14.982,3.1,20.231,8.134
						c-5.313-5.539-12.802-9.002-21.1-9.002c-16.154,0-29.25,13.077-29.25,29.232c0,8.298,3.464,15.788,9.019,21.117
						C88.393,115.805,85.294,108.681,85.294,100.84z"/>
				</g>
			</g>
			<circle fill="#00567C" cx="113.722" cy="99.904" r="22.405"/>
			<g>
				<path fill="#3A739D" d="M95.568,102.098c0-11.07,8.985-20.056,20.058-20.056c5.001,0,9.571,1.85,13.079,4.881
					c-3.676-4.284-9.119-6.996-15.192-6.996c-11.069,0-20.057,8.988-20.057,20.058c0,6.085,2.712,11.515,6.978,15.192
					C97.417,111.669,95.568,107.1,95.568,102.098z"/>
			</g>
		</g>
		<g>
			<path fill="#00354E" d="M483.776,75.669c0-10.85,8.807-19.655,19.655-19.655c10.852,0,19.654,8.805,19.654,19.655
				c0,10.867-8.803,19.655-19.654,19.655C492.583,95.324,483.776,86.537,483.776,75.669z"/>
			<path fill="#004362" d="M527.291,83.465l7.033,5.393l-3.937,6.824l-8.232-3.429c-1.627,1.828-3.528,3.402-5.646,4.679
				l1.936,8.708l-7.403,2.698l-4.155-7.992c-1.136,0.16-2.294,0.242-3.468,0.242c-1.277,0-2.533-0.091-3.794-0.279l-4.115,7.964
				l-7.405-2.698l1.965-8.818c-2.072-1.292-3.896-2.862-5.522-4.677l-8.321,3.467l-3.937-6.824l7.18-5.523
				c-0.732-2.231-1.151-4.62-1.215-7.076l-8.616-2.709l1.351-7.781l9.064,0.403c0.895-2.25,2.112-4.352,3.606-6.238l-4.863-7.586
				l6.054-5.083l6.621,6.093c2.133-1.144,4.434-1.985,6.847-2.492l1.159-8.862h7.906l1.156,8.859
				c2.436,0.509,4.749,1.357,6.862,2.512l6.541-6.003l6.055,5.066l-4.774,7.502c1.519,1.921,2.753,4.065,3.651,6.379l8.847-0.395
				l1.387,7.764l-8.487,2.669C528.508,78.741,528.063,81.179,527.291,83.465z M503.415,91.822c9.096,0,16.453-7.357,16.453-16.435
				c0-9.079-7.357-16.436-16.453-16.436c-9.06,0-16.417,7.357-16.417,16.436C487,84.465,494.355,91.822,503.415,91.822z"/>
			<path fill="#00567C" d="M488.991,75.391c0-7.987,6.475-14.445,14.428-14.445c7.986,0,14.461,6.458,14.461,14.445
				c0,7.969-6.475,14.444-14.461,14.444C495.466,89.835,488.991,83.361,488.991,75.391z"/>
			<g>
				<path fill="#3A739D" d="M491.459,76.635c0-7.326,5.96-13.251,13.285-13.251c3.289,0,6.313,1.212,8.634,3.208
					c-2.421-2.813-6.037-4.618-10.044-4.618c-7.326,0-13.252,5.942-13.252,13.269c0,4.021,1.771,7.622,4.619,10.043
					C492.671,82.963,491.459,79.94,491.459,76.635z"/>
			</g>
		</g>
		<path fill="#FFFFFF" d="M101.186,90.748l12.125-9.125l12.126,9.125H101.186z M125.83,91.182h-25v1.638h25V91.182z M106.45,93.672
			h-4.816v1.232h4.816V93.672z M106.45,109.501h-4.816v1.231h4.816V109.501z M101.882,102.351c0,1.848,0.257,5.242,0.79,6.707h1.323
			h1.305c0.531-1.465,0.806-4.859,0.806-6.707c0-1.866-0.275-5.26-0.806-6.726h-1.305h-1.323
			C102.139,97.09,101.882,100.484,101.882,102.351z M115.768,93.672h-4.818v1.232h4.818V93.672z M115.768,109.501h-4.818v1.231
			h4.818V109.501z M111.182,102.351c0,1.848,0.257,5.242,0.789,6.707h1.323h1.323c0.515-1.465,0.791-4.859,0.791-6.707
			c0-1.866-0.276-5.26-0.791-6.726h-1.323h-1.323C111.439,97.09,111.182,100.484,111.182,102.351z M125.067,93.672h-4.816v1.232
			h4.816V93.672z M125.067,109.501h-4.816v1.231h4.816V109.501z M120.48,102.351c0,1.848,0.266,5.242,0.792,6.707h1.321h1.323
			c0.534-1.465,0.791-4.859,0.791-6.707c0-1.866-0.258-5.26-0.791-6.726h-1.323h-1.321C120.745,97.09,120.48,100.484,120.48,102.351
			z M126.197,111.346h-25.694v2.672h25.694V111.346z"/>
		<g>
			<g>
				<path fill="#00354E" d="M57.996,151.88c0-9.803,7.952-17.773,17.769-17.773c9.815,0,17.768,7.97,17.768,17.773
					c0,9.813-7.952,17.78-17.768,17.78C65.948,169.66,57.996,161.692,57.996,151.88z"/>
				<path fill="#004362" d="M97.334,158.922l6.366,4.889l-3.557,6.177l-7.462-3.096c-1.486,1.633-3.202,3.068-5.085,4.226
					l1.751,7.854l-6.707,2.428l-3.74-7.192c-1.037,0.129-2.076,0.202-3.149,0.202c-1.165,0-2.31-0.081-3.427-0.27l-3.739,7.219
					l-6.707-2.43l1.793-7.997c-1.86-1.162-3.54-2.594-4.974-4.22l-7.542,3.132l-3.575-6.179l6.517-4.975
					c-0.652-2.031-1.034-4.177-1.108-6.407l-7.794-2.45l1.231-7.034l8.189,0.368c0.815-2.036,1.927-3.937,3.273-5.643l-4.389-6.872
					l5.458-4.57l5.991,5.492c1.914-1.026,3.995-1.793,6.181-2.258l1.056-8.002h7.133l1.039,7.999c2.22,0.465,4.298,1.24,6.225,2.276
					l5.918-5.427l5.458,4.59l-4.323,6.778c1.37,1.737,2.496,3.675,3.316,5.771l8.006-0.36l1.231,7.02l-7.678,2.417
					C98.446,154.662,98.039,156.857,97.334,158.922z M75.75,166.497c8.216,0,14.862-6.667,14.862-14.88
					c0-8.198-6.646-14.861-14.862-14.861c-8.199,0-14.863,6.663-14.863,14.861C60.887,159.83,67.552,166.497,75.75,166.497z"/>
				<path fill="#00567C" d="M62.707,151.621c0-7.205,5.84-13.063,13.046-13.063c7.222,0,13.063,5.858,13.063,13.063
					c0,7.212-5.841,13.063-13.063,13.063C68.548,164.687,62.707,158.833,62.707,151.621z"/>
				<g>
					<path fill="#3A739D" d="M64.938,152.757c0-6.618,5.373-11.991,11.992-11.991c2.999,0,5.725,1.089,7.828,2.909
						c-2.2-2.548-5.445-4.181-9.081-4.181c-6.634,0-11.991,5.373-11.991,11.995c0,3.632,1.615,6.89,4.163,9.077
						C66.046,158.482,64.938,155.742,64.938,152.757z"/>
				</g>
			</g>
			<g>
				<path fill="#FFFFFF" d="M76.443,162.311h-1.089v-2.231c-1.457-0.161-2.556-0.487-3.282-0.964c-1.262-0.86-1.9-2.313-1.879-4.377
					h3.021c0.111,0.944,0.244,1.564,0.43,1.891c0.3,0.501,0.869,0.817,1.711,0.974v-4.775l-0.908-0.265
					c-1.417-0.416-2.416-0.99-3-1.737c-0.584-0.748-0.883-1.651-0.883-2.693c0-0.699,0.12-1.323,0.344-1.89
					c0.224-0.567,0.548-1.045,0.956-1.451c0.533-0.533,1.12-0.9,1.762-1.1c0.393-0.133,0.969-0.217,1.73-0.271v-1.491h1.089v1.511
					c1.203,0.088,2.153,0.394,2.85,0.882c1.243,0.794,1.886,2.09,1.942,3.872h-2.949c-0.054-0.654-0.154-1.146-0.319-1.442
					c-0.29-0.533-0.785-0.815-1.524-0.879v4.252c1.761,0.625,2.944,1.152,3.55,1.625c0.997,0.782,1.504,1.876,1.504,3.307
					c0,1.88-0.696,3.236-2.07,4.086c-0.836,0.521-1.83,0.821-2.984,0.917V162.311z M75.354,145.894
					c-0.642,0.014-1.131,0.188-1.433,0.524c-0.318,0.337-0.479,0.783-0.479,1.356c0,0.621,0.236,1.124,0.709,1.491
					c0.254,0.2,0.654,0.387,1.202,0.56V145.894z M76.443,157.563c0.581-0.071,1-0.202,1.259-0.4
					c0.475-0.337,0.703-0.932,0.703-1.767c0-0.651-0.216-1.147-0.645-1.52c-0.27-0.219-0.702-0.447-1.317-0.68L76.443,157.563
					L76.443,157.563z"/>
			</g>
		</g>
		<path fill="#FFFFFF" d="M473.527,129.799l-0.789,0.648c-0.744,0.609-2.389-0.139-3.827-1.717
			c-0.679,0.663-2.171,1.111-3.884,1.111c-0.801,0-1.555-0.089-2.208-0.262c-0.135,0.976-1.987,1.747-4.249,1.747
			c-2.35,0-4.258-0.849-4.258-1.878v-1.022c0-0.195,0.061-0.384,0.209-0.562c-0.147-0.178-0.209-0.366-0.209-0.562v-1.022
			c0-0.195,0.061-0.384,0.209-0.562c-0.147-0.178-0.209-0.366-0.209-0.561v-1.022c0-0.199,0.061-0.383,0.209-0.56
			c-0.147-0.179-0.209-0.367-0.209-0.563v-1.039c0-1.028,1.908-1.86,4.258-1.86c0.802,0,1.554,0.089,2.206,0.261
			c0.022-0.154,0.077-0.285,0.169-0.428c-0.116-0.178-0.177-0.367-0.177-0.562v-1.022c0-0.195,0.061-0.384,0.177-0.561
			c-0.116-0.179-0.177-0.366-0.177-0.563v-1.039c0-0.195,0.061-0.383,0.177-0.543c-0.116-0.179-0.177-0.366-0.177-0.562v-1.04
			c0-1.028,1.909-1.861,4.26-1.861c2.35,0,4.259,0.833,4.259,1.861v1.04c0,0.196-0.062,0.383-0.213,0.562
			c0.15,0.16,0.213,0.349,0.213,0.543v1.039c0,0.196-0.062,0.384-0.213,0.563c0.15,0.178,0.213,0.366,0.213,0.561v1.022
			c0,0.194-0.062,0.384-0.213,0.562c0.15,0.178,0.213,0.365,0.213,0.561v1.022c0,0.194-0.062,0.383-0.213,0.561
			c0.15,0.178,0.213,0.366,0.213,0.562v0.44c0.877,0.24,2.001,1.061,2.987,2.234C473.739,127.132,474.325,129.148,473.527,129.799z
			 M465.03,112.519c-2.15,0-3.859,0.696-3.859,1.538c0,0.858,1.709,1.537,3.859,1.537c2.111,0,3.854-0.678,3.854-1.537
			C468.885,113.215,467.141,112.519,465.03,112.519z M465.028,116.953c-1.68,0-3.09-0.413-3.802-1.017
			c-0.036,0.098-0.057,0.18-0.057,0.266c0,0.858,1.709,1.537,3.858,1.537c2.112,0,3.855-0.679,3.855-1.537
			c0-0.085-0.019-0.168-0.056-0.267C468.119,116.539,466.673,116.953,465.028,116.953z M465.028,119.124
			c-1.68,0-3.09-0.431-3.802-1.035c-0.036,0.098-0.057,0.18-0.057,0.283c0,0.841,1.709,1.537,3.858,1.537
			c2.112,0,3.855-0.694,3.855-1.537c0-0.103-0.019-0.186-0.056-0.284C468.119,118.693,466.673,119.124,465.028,119.124z
			 M471.999,125.541c-1.372-1.652-2.996-2.536-3.661-2.01c-0.629,0.543-0.078,2.311,1.295,3.963c1.338,1.637,2.96,2.536,3.626,1.992
			C473.925,128.959,473.338,127.175,471.999,125.541z M458.571,120.44c-2.14,0-3.858,0.695-3.858,1.537
			c0,0.859,1.719,1.537,3.858,1.537c2.147,0,3.859-0.678,3.859-1.537C462.431,121.135,460.719,120.44,458.571,120.44z
			 M458.57,124.873c-1.645,0-3.089-0.413-3.8-1.017c-0.037,0.097-0.058,0.18-0.058,0.283c0,0.842,1.719,1.535,3.858,1.535
			c2.147,0,3.859-0.693,3.859-1.535c0-0.102-0.021-0.186-0.058-0.284C461.663,124.459,460.219,124.873,458.57,124.873z
			 M458.57,127.051c-1.645,0-3.089-0.428-3.8-1.035c-0.037,0.098-0.058,0.18-0.058,0.284c0,0.841,1.719,1.537,3.858,1.537
			c2.147,0,3.859-0.696,3.859-1.537c0-0.104-0.021-0.186-0.058-0.285C461.663,126.623,460.219,127.051,458.57,127.051z
			 M458.57,129.212c-1.645,0-3.089-0.413-3.8-1.018c-0.037,0.081-0.058,0.181-0.058,0.266c0,0.841,1.719,1.537,3.858,1.537
			c2.147,0,3.859-0.695,3.859-1.537c0-0.085-0.021-0.186-0.058-0.267C461.663,128.799,460.219,129.212,458.57,129.212z
			 M468.829,122.412c-0.711,0.605-2.155,1.018-3.802,1.018c-0.804,0-1.556-0.107-2.211-0.278c-0.023,0.144-0.077,0.287-0.164,0.423
			c0.077,0.106,0.129,0.237,0.154,0.371c0.638,0.159,1.401,0.271,2.222,0.271c0.829,0,1.601-0.114,2.246-0.296
			c0.017-0.014,0.027-0.031,0.044-0.043l0.79-0.647c0.163-0.153,0.41-0.213,0.656-0.209c0.09-0.116,0.119-0.219,0.119-0.342
			C468.885,122.594,468.865,122.493,468.829,122.412z M462.807,121.774c0.639,0.177,1.402,0.288,2.224,0.288
			c2.111,0,3.854-0.695,3.854-1.536c0-0.103-0.019-0.186-0.056-0.285c-0.711,0.623-2.155,1.037-3.802,1.037
			c-1.68,0-3.09-0.414-3.802-1.036c-0.032,0.089-0.051,0.163-0.055,0.256C462.063,120.793,462.694,121.263,462.807,121.774z
			 M467.808,127.285c-0.749,0.275-1.704,0.45-2.779,0.45c-0.806,0-1.559-0.089-2.215-0.263c-0.024,0.141-0.077,0.26-0.16,0.393
			c0.081,0.13,0.133,0.249,0.158,0.388c0.64,0.175,1.4,0.268,2.219,0.268c1.301,0,2.461-0.255,3.164-0.656
			C468.067,127.671,467.913,127.478,467.808,127.285z M467.202,126.101c-0.086-0.266-0.153-0.506-0.194-0.732
			c-0.608,0.142-1.259,0.214-1.979,0.214c-0.804,0-1.559-0.091-2.213-0.264c-0.022,0.126-0.078,0.266-0.162,0.399
			c0.08,0.11,0.131,0.244,0.156,0.38c0.639,0.175,1.4,0.268,2.221,0.268C465.841,126.368,466.601,126.276,467.202,126.101z"/>
		<path fill="#FFFFFF" d="M502.481,75.941l-7.386-4.761c0.143-0.636,0.734-1.125,1.399-1.125h15.002c0.705,0,1.305,0.496,1.44,1.142
			l-7.373,4.754c-0.599,0.413-0.986,0.558-1.536,0.558C503.447,76.509,503.06,76.364,502.481,75.941z M505.975,76.556
			c-0.7,0.485-1.218,0.673-1.944,0.673c-0.728,0-1.243-0.188-1.958-0.682l-7.019-4.529v8.59c0,0.809,0.633,1.461,1.441,1.461h15.002
			c0.811,0,1.477-0.652,1.477-1.461V72.04L505.975,76.556z"/>
		<rect x="66.261" y="-35.092" fill="none" width="448.177" height="395"/>
	</g>
</g>
<g>
	<path fill="#FFFFFF" d="M538.188,226.9v5.593c0,1.208,0.133,1.959,0.396,2.251c0.359,0.416,0.901,0.623,1.629,0.623h0.736v0.524
		h-8.228v-0.524h0.722c0.396,0,0.744-0.065,1.041-0.197c0.298-0.133,0.531-0.331,0.701-0.596c0.189-0.302,0.283-0.996,0.283-2.081
		v-12.404c0-1.198-0.127-1.949-0.383-2.251c-0.367-0.416-0.915-0.623-1.643-0.623h-0.722v-0.524h7.038
		c1.708,0,3.063,0.179,4.063,0.538c0.491,0.18,0.948,0.42,1.374,0.723c0.424,0.302,0.797,0.658,1.118,1.068
		c0.321,0.411,0.573,0.866,0.758,1.367c0.184,0.5,0.276,1.038,0.276,1.613c0,0.784-0.133,1.499-0.396,2.146
		c-0.265,0.647-0.649,1.204-1.154,1.671c-0.506,0.468-1.126,0.831-1.862,1.091c-0.736,0.259-1.577,0.39-2.521,0.39
		S539.396,227.164,538.188,226.9z M538.188,226.093c0.51,0.095,0.956,0.165,1.338,0.212c0.383,0.048,0.711,0.071,0.984,0.071
		c0.49,0,0.956-0.102,1.395-0.305c0.439-0.202,0.821-0.485,1.147-0.85c0.325-0.363,0.585-0.795,0.778-1.296
		c0.193-0.5,0.291-1.047,0.291-1.643c0-0.698-0.104-1.323-0.313-1.876c-0.207-0.552-0.495-1.02-0.863-1.401
		c-0.368-0.383-0.8-0.673-1.296-0.871c-0.495-0.198-1.031-0.297-1.606-0.297c-0.246,0-0.521,0.021-0.829,0.063
		c-0.307,0.042-0.649,0.11-1.026,0.205V226.093z"/>
	<path fill="#FFFFFF" d="M553.07,222.539v2.916c1.095-1.944,2.209-2.916,3.342-2.916c0.254,0,0.49,0.042,0.707,0.127
		c0.218,0.085,0.408,0.201,0.574,0.347c0.165,0.146,0.293,0.313,0.382,0.503c0.09,0.189,0.135,0.387,0.135,0.595
		c0,0.368-0.122,0.68-0.368,0.935s-0.538,0.383-0.878,0.383c-0.161,0-0.34-0.053-0.538-0.156s-0.395-0.215-0.588-0.333
		s-0.37-0.229-0.531-0.333c-0.16-0.104-0.283-0.155-0.367-0.155c-0.123,0-0.26,0.054-0.411,0.163
		c-0.151,0.108-0.307,0.26-0.468,0.453c-0.16,0.193-0.325,0.425-0.495,0.693c-0.17,0.27-0.335,0.564-0.495,0.885v6.217
		c0,0.387,0.023,0.736,0.07,1.048s0.148,0.575,0.305,0.793c0.155,0.218,0.385,0.385,0.687,0.503
		c0.302,0.117,0.703,0.177,1.204,0.177v0.51h-6.642v-0.51c0.415,0,0.755-0.028,1.02-0.085s0.472-0.17,0.623-0.34
		s0.255-0.413,0.312-0.729c0.057-0.315,0.085-0.733,0.085-1.253v-5.027c0-1.529-0.033-2.426-0.099-2.689
		c-0.123-0.558-0.439-0.836-0.949-0.836c-0.293,0-0.623,0.07-0.991,0.213l-0.142-0.51l3.922-1.586H553.07z"/>
	<path fill="#FFFFFF" d="M565.275,222.539c0.916,0,1.756,0.179,2.521,0.537c0.764,0.359,1.423,0.841,1.975,1.445
		c0.553,0.604,0.982,1.307,1.289,2.109s0.46,1.647,0.46,2.535c0,0.934-0.158,1.828-0.475,2.683s-0.757,1.612-1.323,2.272
		c-0.566,0.661-1.242,1.188-2.025,1.579s-1.643,0.588-2.577,0.588c-0.915,0-1.749-0.188-2.499-0.566
		c-0.751-0.378-1.395-0.88-1.934-1.508c-0.537-0.628-0.953-1.348-1.246-2.159c-0.292-0.813-0.438-1.652-0.438-2.521
		c0-0.877,0.151-1.736,0.453-2.576c0.302-0.841,0.729-1.589,1.281-2.245c0.553-0.655,1.214-1.183,1.982-1.579
		C563.489,222.736,564.342,222.539,565.275,222.539z M564.837,223.459c-0.415,0-0.814,0.088-1.196,0.262
		c-0.383,0.175-0.723,0.458-1.02,0.85c-0.298,0.393-0.536,0.896-0.715,1.516c-0.18,0.618-0.27,1.371-0.27,2.258
		c0,0.916,0.097,1.794,0.29,2.635c0.194,0.84,0.468,1.578,0.821,2.216c0.354,0.637,0.783,1.145,1.289,1.522
		c0.505,0.377,1.068,0.566,1.691,0.566c0.453,0,0.871-0.088,1.254-0.263c0.382-0.175,0.715-0.458,0.998-0.85s0.505-0.908,0.666-1.55
		c0.16-0.643,0.24-1.431,0.24-2.365s-0.09-1.813-0.27-2.634c-0.179-0.821-0.441-1.541-0.785-2.159
		c-0.345-0.619-0.77-1.107-1.274-1.466S565.479,223.459,564.837,223.459z"/>
	<path fill="#FFFFFF" d="M577.935,222.539v13.055c0,1.124-0.125,2.096-0.375,2.918c-0.25,0.82-0.603,1.5-1.056,2.039
		c-0.453,0.537-0.99,0.939-1.613,1.203s-1.308,0.396-2.054,0.396c-0.443,0-0.823-0.045-1.14-0.135s-0.578-0.203-0.786-0.34
		s-0.361-0.29-0.46-0.46c-0.1-0.17-0.148-0.335-0.148-0.495c0-0.17,0.03-0.328,0.092-0.475s0.146-0.273,0.255-0.383
		c0.108-0.108,0.231-0.193,0.368-0.255s0.285-0.092,0.445-0.092c0.113,0,0.215,0.003,0.305,0.007
		c0.09,0.005,0.191,0.033,0.305,0.085s0.253,0.14,0.418,0.263c0.165,0.122,0.38,0.302,0.645,0.537
		c0.462,0.416,0.85,0.623,1.16,0.623c0.218,0,0.438-0.084,0.659-0.254s0.385-0.468,0.488-0.893c0.047-0.207,0.085-0.531,0.113-0.97
		c0.028-0.439,0.042-1.003,0.042-1.692v-9.232c0-0.84-0.014-1.498-0.042-1.976c-0.028-0.477-0.08-0.833-0.155-1.069
		c-0.076-0.235-0.18-0.382-0.313-0.438c-0.132-0.057-0.302-0.085-0.51-0.085c-0.264,0-0.585,0.07-0.963,0.213l-0.197-0.51
		l3.908-1.586H577.935z M576.717,215.742c0.198,0,0.387,0.037,0.566,0.113c0.18,0.075,0.335,0.179,0.467,0.311
		c0.133,0.133,0.236,0.289,0.313,0.468c0.075,0.179,0.113,0.368,0.113,0.566s-0.038,0.385-0.113,0.56
		c-0.076,0.174-0.18,0.328-0.313,0.46c-0.132,0.132-0.287,0.235-0.467,0.312s-0.368,0.113-0.566,0.113s-0.385-0.037-0.56-0.113
		s-0.328-0.18-0.46-0.312s-0.236-0.286-0.312-0.46c-0.075-0.175-0.113-0.361-0.113-0.56s0.038-0.388,0.113-0.566
		s0.18-0.335,0.312-0.468c0.132-0.132,0.285-0.235,0.46-0.311C576.332,215.779,576.519,215.742,576.717,215.742z"/>
	<path fill="#FFFFFF" d="M583.669,227.807c0,0.963,0.128,1.826,0.382,2.591c0.256,0.765,0.6,1.413,1.034,1.947
		c0.435,0.533,0.937,0.938,1.508,1.218c0.571,0.278,1.173,0.418,1.806,0.418c0.85,0,1.588-0.234,2.216-0.701
		c0.628-0.468,1.154-1.268,1.579-2.4l0.439,0.283c-0.104,0.633-0.303,1.256-0.596,1.869c-0.292,0.613-0.667,1.161-1.125,1.643
		s-0.991,0.871-1.601,1.168c-0.608,0.298-1.271,0.446-1.989,0.446c-0.774,0-1.503-0.158-2.188-0.475
		c-0.685-0.315-1.284-0.765-1.799-1.345c-0.515-0.581-0.923-1.284-1.225-2.11c-0.302-0.825-0.453-1.753-0.453-2.782
		c0-1.123,0.153-2.121,0.46-2.995c0.307-0.873,0.729-1.612,1.268-2.216s1.173-1.063,1.904-1.373
		c0.731-0.313,1.518-0.468,2.358-0.468c0.717,0,1.38,0.125,1.989,0.375c0.608,0.251,1.135,0.606,1.579,1.069
		c0.443,0.463,0.79,1.018,1.04,1.664s0.376,1.371,0.376,2.174H583.669z M583.669,226.984h6.004c-0.038-0.83-0.137-1.416-0.298-1.756
		c-0.235-0.528-0.587-0.943-1.055-1.246c-0.467-0.302-0.955-0.453-1.465-0.453c-0.388,0-0.761,0.078-1.119,0.234
		c-0.358,0.155-0.685,0.382-0.977,0.68c-0.293,0.297-0.536,0.658-0.729,1.083S583.716,226.438,583.669,226.984z"/>
	<path fill="#FFFFFF" d="M598.197,215.756v12.871l3.299-2.973c0.302-0.274,0.543-0.496,0.723-0.666
		c0.179-0.17,0.313-0.309,0.403-0.418c0.09-0.108,0.146-0.195,0.17-0.262s0.035-0.137,0.035-0.213c0-0.188-0.078-0.352-0.233-0.488
		c-0.156-0.137-0.413-0.215-0.771-0.233v-0.453h5.635v0.453c-0.396,0.009-0.748,0.04-1.055,0.092s-0.6,0.135-0.878,0.248
		s-0.552,0.267-0.821,0.46c-0.269,0.193-0.559,0.432-0.871,0.715l-3.327,3.073l3.327,4.206c0.916,1.16,1.539,1.896,1.869,2.209
		c0.208,0.207,0.39,0.375,0.546,0.502c0.155,0.128,0.316,0.229,0.481,0.305s0.354,0.127,0.566,0.156
		c0.212,0.027,0.488,0.042,0.828,0.042v0.51h-6.301v-0.51c0.358-0.009,0.602-0.063,0.729-0.163c0.128-0.099,0.191-0.238,0.191-0.418
		c0-0.227-0.188-0.575-0.566-1.047l-3.979-5.041v4.262c0,0.434,0.014,0.783,0.042,1.048s0.071,0.475,0.128,0.63
		c0.057,0.156,0.127,0.271,0.212,0.348c0.085,0.075,0.185,0.141,0.298,0.197c0.197,0.104,0.67,0.166,1.416,0.185v0.51h-6.6v-0.51
		c0.444,0,0.806-0.028,1.084-0.085s0.498-0.168,0.658-0.333s0.27-0.401,0.326-0.708s0.084-0.71,0.084-1.211v-11.809
		c0-0.756-0.007-1.362-0.021-1.82c-0.015-0.457-0.04-0.767-0.078-0.928c-0.075-0.34-0.187-0.573-0.333-0.7
		c-0.146-0.128-0.342-0.191-0.588-0.191c-0.188,0-0.485,0.08-0.892,0.241l-0.241-0.496l3.852-1.586H598.197z"/>
	<path fill="#FFFFFF" d="M612.626,218.658v4.263h3.03v0.991h-3.03v8.411c0,0.425,0.033,0.776,0.099,1.055
		c0.066,0.278,0.156,0.498,0.27,0.659c0.113,0.16,0.248,0.271,0.403,0.332c0.156,0.062,0.328,0.092,0.517,0.092
		c0.313,0,0.614-0.096,0.906-0.29c0.293-0.193,0.52-0.479,0.68-0.856h0.553c-0.17,0.463-0.375,0.869-0.616,1.218
		c-0.24,0.349-0.503,0.64-0.786,0.871s-0.585,0.405-0.906,0.523c-0.32,0.118-0.642,0.177-0.963,0.177
		c-0.217,0-0.437-0.03-0.658-0.092c-0.222-0.061-0.43-0.15-0.623-0.269s-0.37-0.263-0.531-0.433c-0.16-0.17-0.287-0.367-0.382-0.594
		c-0.198-0.453-0.298-1.147-0.298-2.082v-8.723h-2.053v-0.467c0.52-0.208,1.05-0.56,1.593-1.056
		c0.543-0.495,1.026-1.083,1.452-1.763c0.104-0.18,0.233-0.432,0.389-0.758c0.156-0.325,0.328-0.729,0.518-1.211H612.626z"/>
	<path fill="#FFFFFF" d="M620.768,225.3c0.944-0.944,1.501-1.487,1.671-1.628c0.425-0.359,0.883-0.638,1.374-0.836
		c0.49-0.198,0.977-0.297,1.458-0.297c0.821,0,1.522,0.233,2.103,0.7c0.581,0.468,0.971,1.154,1.168,2.061
		c0.973-1.124,1.794-1.864,2.465-2.224c0.67-0.358,1.359-0.537,2.066-0.537c0.473,0,0.916,0.08,1.332,0.24
		c0.415,0.16,0.776,0.428,1.083,0.8c0.307,0.373,0.55,0.871,0.729,1.494c0.179,0.623,0.269,1.393,0.269,2.308v5.58
		c0,0.424,0.012,0.79,0.035,1.097c0.023,0.308,0.097,0.56,0.22,0.758s0.316,0.343,0.58,0.432c0.265,0.09,0.638,0.135,1.119,0.135
		v0.51h-6.4v-0.51h0.27c0.472,0,0.854-0.075,1.146-0.227s0.5-0.425,0.623-0.821c0.038-0.142,0.057-0.6,0.057-1.373v-5.58
		c0-0.623-0.047-1.135-0.142-1.536s-0.233-0.722-0.418-0.963c-0.184-0.24-0.408-0.408-0.673-0.503
		c-0.264-0.094-0.57-0.141-0.92-0.141c-0.255,0-0.503,0.027-0.743,0.084c-0.241,0.057-0.493,0.156-0.758,0.298
		s-0.55,0.328-0.856,0.56c-0.307,0.23-0.645,0.521-1.013,0.871l0.028,6.91c0,0.462,0.01,0.823,0.028,1.083
		c0.019,0.259,0.055,0.458,0.106,0.595s0.125,0.238,0.219,0.305c0.095,0.065,0.213,0.141,0.354,0.227
		c0.132,0.075,0.316,0.129,0.552,0.162c0.236,0.033,0.52,0.05,0.85,0.05v0.51h-6.556v-0.51c0.51,0,0.908-0.035,1.196-0.106
		c0.288-0.07,0.498-0.198,0.631-0.382c0.132-0.185,0.212-0.433,0.24-0.743c0.028-0.313,0.043-0.709,0.043-1.189v-5.58
		c0-0.604-0.055-1.109-0.163-1.515s-0.263-0.731-0.46-0.978c-0.199-0.245-0.433-0.422-0.701-0.53
		c-0.27-0.108-0.564-0.163-0.885-0.163c-0.313,0-0.633,0.059-0.963,0.177c-0.331,0.118-0.645,0.265-0.942,0.439
		c-0.297,0.175-0.568,0.368-0.813,0.58c-0.246,0.213-0.449,0.418-0.609,0.616v6.953c0,0.443,0.014,0.795,0.043,1.055
		c0.027,0.26,0.07,0.467,0.127,0.623c0.057,0.155,0.13,0.271,0.22,0.347s0.19,0.146,0.304,0.212
		c0.236,0.123,0.709,0.185,1.416,0.185v0.51h-6.414v-0.51c0.435,0,0.781-0.033,1.041-0.099c0.26-0.066,0.458-0.188,0.595-0.361
		c0.137-0.175,0.227-0.42,0.269-0.736c0.043-0.316,0.064-0.725,0.064-1.225v-4.957c0-0.84-0.015-1.498-0.043-1.975
		s-0.08-0.836-0.156-1.076c-0.075-0.241-0.179-0.39-0.311-0.446c-0.133-0.057-0.303-0.085-0.51-0.085
		c-0.265,0-0.581,0.07-0.949,0.213l-0.213-0.51l3.908-1.586h0.609V225.3z"/>
	<path fill="#FFFFFF" d="M646.822,234.022c-1.332,1.038-2.167,1.634-2.507,1.784c-0.5,0.236-1.043,0.354-1.628,0.354
		c-0.444,0-0.854-0.08-1.232-0.24s-0.703-0.387-0.977-0.68c-0.274-0.293-0.489-0.645-0.645-1.055
		c-0.156-0.411-0.234-0.866-0.234-1.367c0-0.367,0.05-0.707,0.149-1.02c0.099-0.311,0.247-0.605,0.446-0.885
		c0.197-0.278,0.45-0.545,0.757-0.8s0.668-0.505,1.083-0.751c0.973-0.575,2.568-1.265,4.787-2.066v-0.51
		c0-0.652-0.055-1.195-0.163-1.629s-0.265-0.781-0.468-1.041s-0.455-0.443-0.758-0.552c-0.302-0.108-0.642-0.163-1.02-0.163
		c-0.302,0-0.573,0.045-0.813,0.135c-0.241,0.09-0.446,0.207-0.616,0.354s-0.3,0.316-0.39,0.51s-0.134,0.39-0.134,0.588l0.027,0.821
		c0,0.435-0.11,0.77-0.332,1.005c-0.222,0.236-0.513,0.354-0.871,0.354c-0.35,0-0.635-0.122-0.856-0.368s-0.333-0.58-0.333-1.006
		c0-0.396,0.106-0.787,0.318-1.175c0.213-0.388,0.52-0.736,0.921-1.048s0.896-0.562,1.486-0.75c0.59-0.189,1.263-0.283,2.019-0.283
		c1,0,1.85,0.146,2.549,0.438c0.698,0.292,1.203,0.798,1.515,1.515c0.17,0.416,0.255,1.246,0.255,2.492v4.404
		c0,0.623,0.007,1.123,0.021,1.501c0.014,0.378,0.03,0.638,0.049,0.778c0.048,0.274,0.126,0.459,0.234,0.553
		s0.233,0.142,0.375,0.142c0.095,0,0.184-0.015,0.27-0.042c0.084-0.029,0.184-0.086,0.297-0.17c0.113-0.086,0.245-0.201,0.396-0.348
		s0.345-0.338,0.58-0.573v0.793c-1.066,1.416-2.076,2.124-3.029,2.124c-0.453,0-0.822-0.16-1.105-0.481
		S646.822,234.797,646.822,234.022z M646.822,233.102v-4.941c-0.718,0.283-1.306,0.523-1.764,0.723
		c-0.458,0.197-0.79,0.358-0.998,0.48c-0.746,0.426-1.279,0.861-1.6,1.311c-0.321,0.448-0.482,0.941-0.482,1.479
		c0,0.34,0.055,0.653,0.163,0.941s0.255,0.538,0.439,0.751c0.184,0.212,0.398,0.377,0.644,0.495
		c0.246,0.118,0.501,0.177,0.766,0.177C644.707,234.518,645.651,234.046,646.822,233.102z"/>
	<path fill="#FFFFFF" d="M656.125,225.285c1.52-1.831,2.969-2.746,4.347-2.746c0.481,0,0.925,0.08,1.331,0.24s0.76,0.43,1.063,0.807
		c0.302,0.378,0.537,0.879,0.707,1.502s0.256,1.401,0.256,2.336v5.537c0,0.557,0.03,0.996,0.092,1.316s0.167,0.564,0.318,0.729
		s0.354,0.269,0.609,0.312c0.254,0.042,0.575,0.063,0.963,0.063v0.51h-6.415v-0.51h0.269c0.426,0,0.758-0.038,0.999-0.113
		c0.24-0.075,0.422-0.205,0.545-0.39c0.123-0.184,0.2-0.432,0.233-0.743s0.05-0.703,0.05-1.175v-5.311c0-1.18-0.153-2.037-0.46-2.57
		s-0.824-0.8-1.551-0.8c-1.123,0-2.242,0.614-3.355,1.841v6.84c0,0.858,0.052,1.401,0.155,1.628c0.066,0.142,0.14,0.265,0.22,0.368
		s0.188,0.187,0.325,0.248c0.137,0.061,0.316,0.105,0.538,0.135c0.222,0.027,0.513,0.042,0.871,0.042v0.51h-6.414v-0.51h0.283
		c0.34,0,0.618-0.038,0.835-0.113s0.39-0.208,0.517-0.396c0.128-0.188,0.215-0.437,0.262-0.743c0.048-0.307,0.071-0.696,0.071-1.168
		v-4.814c0-1.539-0.038-2.488-0.113-2.847c-0.066-0.34-0.172-0.571-0.318-0.694c-0.146-0.122-0.343-0.184-0.588-0.184
		c-0.265,0-0.581,0.07-0.948,0.213l-0.213-0.51l3.908-1.586h0.609V225.285z"/>
	<path fill="#FFFFFF" d="M674.193,234.022c-1.332,1.038-2.167,1.634-2.507,1.784c-0.5,0.236-1.043,0.354-1.628,0.354
		c-0.444,0-0.854-0.08-1.232-0.24s-0.703-0.387-0.977-0.68c-0.274-0.293-0.489-0.645-0.645-1.055
		c-0.156-0.411-0.234-0.866-0.234-1.367c0-0.367,0.05-0.707,0.149-1.02c0.099-0.311,0.247-0.605,0.446-0.885
		c0.197-0.278,0.45-0.545,0.757-0.8s0.668-0.505,1.083-0.751c0.973-0.575,2.568-1.265,4.787-2.066v-0.51
		c0-0.652-0.055-1.195-0.163-1.629s-0.265-0.781-0.468-1.041s-0.455-0.443-0.758-0.552c-0.302-0.108-0.642-0.163-1.02-0.163
		c-0.302,0-0.573,0.045-0.813,0.135c-0.241,0.09-0.446,0.207-0.616,0.354s-0.3,0.316-0.39,0.51s-0.134,0.39-0.134,0.588l0.027,0.821
		c0,0.435-0.11,0.77-0.332,1.005c-0.222,0.236-0.513,0.354-0.871,0.354c-0.35,0-0.635-0.122-0.856-0.368s-0.333-0.58-0.333-1.006
		c0-0.396,0.106-0.787,0.318-1.175c0.213-0.388,0.52-0.736,0.921-1.048s0.896-0.562,1.486-0.75c0.59-0.189,1.263-0.283,2.019-0.283
		c1,0,1.85,0.146,2.549,0.438c0.698,0.292,1.203,0.798,1.515,1.515c0.17,0.416,0.255,1.246,0.255,2.492v4.404
		c0,0.623,0.007,1.123,0.021,1.501c0.014,0.378,0.03,0.638,0.049,0.778c0.048,0.274,0.126,0.459,0.234,0.553
		s0.233,0.142,0.375,0.142c0.095,0,0.184-0.015,0.27-0.042c0.084-0.029,0.184-0.086,0.297-0.17c0.113-0.086,0.245-0.201,0.396-0.348
		s0.345-0.338,0.58-0.573v0.793c-1.066,1.416-2.076,2.124-3.029,2.124c-0.453,0-0.822-0.16-1.105-0.481
		S674.193,234.797,674.193,234.022z M674.193,233.102v-4.941c-0.718,0.283-1.306,0.523-1.764,0.723
		c-0.458,0.197-0.79,0.358-0.998,0.48c-0.746,0.426-1.279,0.861-1.6,1.311c-0.321,0.448-0.482,0.941-0.482,1.479
		c0,0.34,0.055,0.653,0.163,0.941s0.255,0.538,0.439,0.751c0.184,0.212,0.398,0.377,0.644,0.495
		c0.246,0.118,0.501,0.177,0.766,0.177C672.078,234.518,673.022,234.046,674.193,233.102z"/>
	<path fill="#FFFFFF" d="M683.184,231.162c-0.802-0.396-1.413-0.938-1.833-1.621c-0.42-0.685-0.63-1.451-0.63-2.301
		c0-0.643,0.127-1.249,0.382-1.82c0.255-0.57,0.613-1.068,1.076-1.494c0.463-0.424,1.008-0.762,1.636-1.012s1.319-0.375,2.074-0.375
		c1.246,0,2.317,0.302,3.215,0.906h2.746c0.208,0,0.366,0.002,0.475,0.007s0.189,0.014,0.241,0.028
		c0.052,0.014,0.082,0.03,0.092,0.049c0.01,0.02,0.023,0.043,0.042,0.071c0.057,0.085,0.086,0.235,0.086,0.453
		c0,0.142-0.003,0.257-0.008,0.347s-0.033,0.158-0.085,0.205c-0.052,0.048-0.142,0.078-0.269,0.093
		c-0.128,0.014-0.318,0.021-0.574,0.021h-1.685c0.528,0.689,0.793,1.559,0.793,2.605c0,0.596-0.12,1.159-0.361,1.692
		c-0.24,0.534-0.583,0.999-1.026,1.396s-0.981,0.713-1.614,0.948s-1.336,0.354-2.11,0.354c-0.632,0-1.288-0.095-1.968-0.283
		c-0.425,0.358-0.708,0.672-0.85,0.941c-0.142,0.269-0.212,0.498-0.212,0.687c0,0.142,0.027,0.265,0.084,0.368
		s0.191,0.191,0.404,0.262c0.212,0.071,0.526,0.128,0.941,0.17c0.415,0.043,0.981,0.073,1.699,0.092
		c0.973,0.029,1.772,0.057,2.4,0.086c0.628,0.027,1.088,0.065,1.381,0.113c0.434,0.057,0.83,0.17,1.189,0.34
		c0.358,0.17,0.663,0.382,0.913,0.637s0.443,0.547,0.58,0.878s0.206,0.688,0.206,1.076c0,1.067-0.501,2.067-1.502,3.002
		c-1.481,1.378-3.402,2.067-5.763,2.067c-0.651,0-1.313-0.07-1.982-0.213c-0.67-0.141-1.279-0.332-1.827-0.573
		c-0.547-0.24-0.995-0.526-1.345-0.856s-0.524-0.685-0.524-1.063c0-0.141,0.021-0.285,0.064-0.432
		c0.042-0.146,0.108-0.302,0.198-0.467c0.09-0.166,0.207-0.348,0.354-0.545c0.146-0.199,0.323-0.43,0.531-0.694
		c0.066-0.085,0.548-0.595,1.444-1.529c-0.491-0.292-0.838-0.555-1.041-0.786c-0.203-0.23-0.305-0.493-0.305-0.785
		c0-0.17,0.024-0.348,0.071-0.531c0.047-0.185,0.151-0.395,0.312-0.631c0.16-0.235,0.39-0.504,0.687-0.807
		C682.285,231.936,682.684,231.578,683.184,231.162z M683.043,235.892c-0.897,0.972-1.346,1.804-1.346,2.492
		c0,0.312,0.13,0.595,0.39,0.85s0.611,0.472,1.055,0.651s0.965,0.318,1.564,0.418c0.6,0.099,1.234,0.148,1.905,0.148
		c0.85,0,1.588-0.085,2.216-0.255s1.145-0.39,1.55-0.658c0.406-0.27,0.709-0.571,0.906-0.906c0.199-0.335,0.298-0.668,0.298-0.999
		c0-0.245-0.052-0.453-0.155-0.623c-0.104-0.17-0.291-0.309-0.56-0.417c-0.27-0.108-0.64-0.194-1.112-0.255
		c-0.472-0.062-1.076-0.102-1.813-0.121c-1.066-0.027-2.006-0.07-2.817-0.127S683.618,235.967,683.043,235.892z M685.648,223.219
		c-0.34,0-0.661,0.068-0.963,0.205c-0.303,0.137-0.564,0.344-0.786,0.623c-0.222,0.278-0.396,0.633-0.524,1.062
		c-0.127,0.43-0.191,0.933-0.191,1.509c0,0.642,0.064,1.231,0.191,1.77c0.128,0.538,0.314,1.003,0.56,1.395
		c0.245,0.393,0.543,0.696,0.892,0.914c0.35,0.217,0.746,0.325,1.189,0.325c0.359,0,0.689-0.065,0.992-0.198
		c0.302-0.133,0.562-0.335,0.778-0.609c0.217-0.273,0.387-0.62,0.51-1.04c0.123-0.421,0.185-0.919,0.185-1.494
		c0-0.632-0.064-1.22-0.191-1.763c-0.128-0.543-0.312-1.016-0.553-1.416c-0.24-0.401-0.535-0.715-0.885-0.941
		S686.102,223.219,685.648,223.219z"/>
	<path fill="#FFFFFF" d="M696.396,227.807c0,0.963,0.128,1.826,0.382,2.591c0.256,0.765,0.6,1.413,1.034,1.947
		c0.435,0.533,0.937,0.938,1.508,1.218c0.571,0.278,1.173,0.418,1.806,0.418c0.85,0,1.588-0.234,2.216-0.701
		c0.628-0.468,1.154-1.268,1.579-2.4l0.439,0.283c-0.104,0.633-0.303,1.256-0.596,1.869c-0.292,0.613-0.667,1.161-1.125,1.643
		s-0.991,0.871-1.601,1.168c-0.608,0.298-1.271,0.446-1.989,0.446c-0.774,0-1.503-0.158-2.188-0.475
		c-0.685-0.315-1.284-0.765-1.799-1.345c-0.515-0.581-0.923-1.284-1.225-2.11c-0.302-0.825-0.453-1.753-0.453-2.782
		c0-1.123,0.153-2.121,0.46-2.995c0.307-0.873,0.729-1.612,1.268-2.216s1.173-1.063,1.904-1.373
		c0.731-0.313,1.518-0.468,2.358-0.468c0.717,0,1.38,0.125,1.989,0.375c0.608,0.251,1.135,0.606,1.579,1.069
		c0.443,0.463,0.79,1.018,1.04,1.664s0.376,1.371,0.376,2.174H696.396z M696.396,226.984h6.004c-0.038-0.83-0.137-1.416-0.298-1.756
		c-0.235-0.528-0.587-0.943-1.055-1.246c-0.467-0.302-0.955-0.453-1.465-0.453c-0.388,0-0.761,0.078-1.119,0.234
		c-0.358,0.155-0.685,0.382-0.977,0.68c-0.293,0.297-0.536,0.658-0.729,1.083S696.442,226.438,696.396,226.984z"/>
	<path fill="#FFFFFF" d="M710.938,225.3c0.944-0.944,1.501-1.487,1.671-1.628c0.425-0.359,0.883-0.638,1.374-0.836
		c0.49-0.198,0.977-0.297,1.458-0.297c0.821,0,1.522,0.233,2.103,0.7c0.581,0.468,0.971,1.154,1.168,2.061
		c0.973-1.124,1.794-1.864,2.465-2.224c0.67-0.358,1.359-0.537,2.066-0.537c0.473,0,0.916,0.08,1.332,0.24
		c0.415,0.16,0.776,0.428,1.083,0.8c0.307,0.373,0.55,0.871,0.729,1.494c0.179,0.623,0.269,1.393,0.269,2.308v5.58
		c0,0.424,0.012,0.79,0.035,1.097c0.023,0.308,0.097,0.56,0.22,0.758s0.316,0.343,0.58,0.432c0.265,0.09,0.638,0.135,1.119,0.135
		v0.51h-6.4v-0.51h0.27c0.472,0,0.854-0.075,1.146-0.227s0.5-0.425,0.623-0.821c0.038-0.142,0.057-0.6,0.057-1.373v-5.58
		c0-0.623-0.047-1.135-0.142-1.536s-0.233-0.722-0.418-0.963c-0.184-0.24-0.408-0.408-0.673-0.503
		c-0.264-0.094-0.57-0.141-0.92-0.141c-0.255,0-0.503,0.027-0.743,0.084c-0.241,0.057-0.493,0.156-0.758,0.298
		s-0.55,0.328-0.856,0.56c-0.307,0.23-0.645,0.521-1.013,0.871l0.028,6.91c0,0.462,0.01,0.823,0.028,1.083
		c0.019,0.259,0.055,0.458,0.106,0.595s0.125,0.238,0.219,0.305c0.095,0.065,0.213,0.141,0.354,0.227
		c0.132,0.075,0.316,0.129,0.552,0.162c0.236,0.033,0.52,0.05,0.85,0.05v0.51h-6.556v-0.51c0.51,0,0.908-0.035,1.196-0.106
		c0.288-0.07,0.498-0.198,0.631-0.382c0.132-0.185,0.212-0.433,0.24-0.743c0.028-0.313,0.043-0.709,0.043-1.189v-5.58
		c0-0.604-0.055-1.109-0.163-1.515s-0.263-0.731-0.46-0.978c-0.199-0.245-0.433-0.422-0.701-0.53
		c-0.27-0.108-0.564-0.163-0.885-0.163c-0.313,0-0.633,0.059-0.963,0.177c-0.331,0.118-0.645,0.265-0.942,0.439
		c-0.297,0.175-0.568,0.368-0.813,0.58c-0.246,0.213-0.449,0.418-0.609,0.616v6.953c0,0.443,0.014,0.795,0.043,1.055
		c0.027,0.26,0.07,0.467,0.127,0.623c0.057,0.155,0.13,0.271,0.22,0.347s0.19,0.146,0.304,0.212
		c0.236,0.123,0.709,0.185,1.416,0.185v0.51h-6.414v-0.51c0.435,0,0.781-0.033,1.041-0.099c0.26-0.066,0.458-0.188,0.595-0.361
		c0.137-0.175,0.227-0.42,0.269-0.736c0.043-0.316,0.064-0.725,0.064-1.225v-4.957c0-0.84-0.015-1.498-0.043-1.975
		s-0.08-0.836-0.156-1.076c-0.075-0.241-0.179-0.39-0.311-0.446c-0.133-0.057-0.303-0.085-0.51-0.085
		c-0.265,0-0.581,0.07-0.949,0.213l-0.213-0.51l3.908-1.586h0.609V225.3z"/>
	<path fill="#FFFFFF" d="M731.823,227.807c0,0.963,0.128,1.826,0.382,2.591c0.256,0.765,0.6,1.413,1.034,1.947
		c0.435,0.533,0.937,0.938,1.508,1.218c0.571,0.278,1.173,0.418,1.806,0.418c0.85,0,1.588-0.234,2.216-0.701
		c0.628-0.468,1.154-1.268,1.579-2.4l0.439,0.283c-0.104,0.633-0.303,1.256-0.596,1.869c-0.292,0.613-0.667,1.161-1.125,1.643
		s-0.991,0.871-1.601,1.168c-0.608,0.298-1.271,0.446-1.989,0.446c-0.774,0-1.503-0.158-2.188-0.475
		c-0.685-0.315-1.284-0.765-1.799-1.345c-0.515-0.581-0.923-1.284-1.225-2.11c-0.302-0.825-0.453-1.753-0.453-2.782
		c0-1.123,0.153-2.121,0.46-2.995c0.307-0.873,0.729-1.612,1.268-2.216s1.173-1.063,1.904-1.373
		c0.731-0.313,1.518-0.468,2.358-0.468c0.717,0,1.38,0.125,1.989,0.375c0.608,0.251,1.135,0.606,1.579,1.069
		c0.443,0.463,0.79,1.018,1.04,1.664s0.376,1.371,0.376,2.174H731.823z M731.823,226.984h6.004c-0.038-0.83-0.137-1.416-0.298-1.756
		c-0.235-0.528-0.587-0.943-1.055-1.246c-0.467-0.302-0.955-0.453-1.465-0.453c-0.388,0-0.761,0.078-1.119,0.234
		c-0.358,0.155-0.685,0.382-0.977,0.68c-0.293,0.297-0.536,0.658-0.729,1.083S731.87,226.438,731.823,226.984z"/>
	<path fill="#FFFFFF" d="M746.295,225.285c1.52-1.831,2.969-2.746,4.347-2.746c0.481,0,0.925,0.08,1.331,0.24s0.76,0.43,1.063,0.807
		c0.302,0.378,0.537,0.879,0.707,1.502s0.256,1.401,0.256,2.336v5.537c0,0.557,0.03,0.996,0.092,1.316s0.167,0.564,0.318,0.729
		s0.354,0.269,0.609,0.312c0.254,0.042,0.575,0.063,0.963,0.063v0.51h-6.415v-0.51h0.269c0.426,0,0.758-0.038,0.999-0.113
		c0.24-0.075,0.422-0.205,0.545-0.39c0.123-0.184,0.2-0.432,0.233-0.743s0.05-0.703,0.05-1.175v-5.311c0-1.18-0.153-2.037-0.46-2.57
		s-0.824-0.8-1.551-0.8c-1.123,0-2.242,0.614-3.355,1.841v6.84c0,0.858,0.052,1.401,0.155,1.628c0.066,0.142,0.14,0.265,0.22,0.368
		s0.188,0.187,0.325,0.248c0.137,0.061,0.316,0.105,0.538,0.135c0.222,0.027,0.513,0.042,0.871,0.042v0.51h-6.414v-0.51h0.283
		c0.34,0,0.618-0.038,0.835-0.113s0.39-0.208,0.517-0.396c0.128-0.188,0.215-0.437,0.262-0.743c0.048-0.307,0.071-0.696,0.071-1.168
		v-4.814c0-1.539-0.038-2.488-0.113-2.847c-0.066-0.34-0.172-0.571-0.318-0.694c-0.146-0.122-0.343-0.184-0.588-0.184
		c-0.265,0-0.581,0.07-0.948,0.213l-0.213-0.51l3.908-1.586h0.609V225.285z"/>
	<path fill="#FFFFFF" d="M760.78,218.658v4.263h3.03v0.991h-3.03v8.411c0,0.425,0.033,0.776,0.099,1.055
		c0.066,0.278,0.156,0.498,0.27,0.659c0.113,0.16,0.248,0.271,0.403,0.332c0.156,0.062,0.328,0.092,0.517,0.092
		c0.313,0,0.614-0.096,0.906-0.29c0.293-0.193,0.52-0.479,0.68-0.856h0.553c-0.17,0.463-0.375,0.869-0.616,1.218
		c-0.24,0.349-0.503,0.64-0.786,0.871s-0.585,0.405-0.906,0.523c-0.32,0.118-0.642,0.177-0.963,0.177
		c-0.217,0-0.437-0.03-0.658-0.092c-0.222-0.061-0.43-0.15-0.623-0.269s-0.37-0.263-0.531-0.433c-0.16-0.17-0.287-0.367-0.382-0.594
		c-0.198-0.453-0.298-1.147-0.298-2.082v-8.723h-2.053v-0.467c0.52-0.208,1.05-0.56,1.593-1.056
		c0.543-0.495,1.026-1.083,1.452-1.763c0.104-0.18,0.233-0.432,0.389-0.758c0.156-0.325,0.328-0.729,0.518-1.211H760.78z"/>
</g>
<rect x="762.5" y="267.042" fill="none" width="37.5" height="33.959"/>
<rect x="762.5" y="221.111" fill="none" width="37.5" height="78.889"/>
</svg>
